<svg xmlns="http://www.w3.org/2000/svg" xmlns:xlink="http://www.w3.org/1999/xlink" zoomAndPan="magnify" preserveAspectRatio="xMidYMid meet" version="1.0" viewBox="108.02 100.32 159.36 169.42"><defs><g/><clipPath id="7c85c94258"><path d="M 136 100.324219 L 241.363281 100.324219 L 241.363281 218.074219 L 136 218.074219 Z M 136 100.324219 " clip-rule="nonzero"/></clipPath><clipPath id="9940f726c9"><path d="M 133.363281 100.324219 L 236 100.324219 L 236 215 L 133.363281 215 Z M 133.363281 100.324219 " clip-rule="nonzero"/></clipPath></defs><g clip-path="url(#7c85c94258)"><path fill="#d8e9f0" d="M 151.0625 142.148438 C 154.457031 137.59375 158.304688 132.433594 161.777344 128.25 C 166.847656 122.136719 168.628906 121.144531 169 120.988281 C 169.785156 120.835938 170.539062 120.757812 171.242188 120.757812 C 173.980469 120.757812 175.523438 121.960938 176.269531 122.808594 C 176.019531 124.507812 175.976562 127.179688 177.410156 129.671875 C 177.808594 130.363281 178.382812 131.144531 179.210938 131.882812 C 178.398438 132.140625 177.699219 132.703125 177.285156 133.480469 C 176.695312 134.582031 175.90625 135.773438 175.019531 136.984375 C 174.277344 135.996094 173.101562 135.390625 171.8125 135.390625 C 171.226562 135.390625 170.640625 135.515625 170.082031 135.757812 C 170.734375 134.371094 170.734375 132.90625 170.054688 131.644531 C 169.261719 130.164062 167.695312 129.277344 165.863281 129.277344 C 163.828125 129.277344 161.925781 130.34375 160.777344 132.128906 C 159.335938 134.363281 150.796875 144.347656 147.183594 147.3125 C 148.253906 145.902344 149.53125 144.203125 151.0625 142.148438 Z M 181.007812 140.023438 C 181.425781 140.230469 181.875 140.421875 182.347656 140.597656 L 182.691406 147.910156 C 181.289062 147.039062 179.578125 146.527344 177.734375 146.527344 C 177.382812 146.527344 177.066406 146.554688 176.777344 146.585938 C 176.714844 146.589844 176.648438 146.59375 176.585938 146.597656 C 176.375 146.621094 176.058594 146.652344 175.660156 146.707031 C 177.4375 144.683594 179.382812 142.339844 181.007812 140.023438 Z M 177.734375 154.851562 C 176.824219 154.851562 176.152344 154.488281 175.886719 154.128906 C 175.714844 153.894531 175.515625 153.6875 175.292969 153.511719 C 175.875 153.398438 176.449219 153.308594 177.003906 153.25 C 177.113281 153.246094 177.21875 153.238281 177.328125 153.222656 C 177.453125 153.207031 177.644531 153.183594 177.734375 153.183594 C 179.015625 153.183594 179.664062 153.878906 179.664062 154.019531 C 179.664062 154.160156 179.015625 154.851562 177.734375 154.851562 Z M 186.6875 180.613281 C 187.515625 180.789062 188.367188 180.644531 189.082031 180.21875 C 189.800781 180.679688 190.675781 180.847656 191.523438 180.671875 L 191.738281 180.628906 C 192.867188 180.394531 193.882812 180.011719 194.761719 179.503906 C 194.644531 179.9375 194.617188 180.398438 194.683594 180.859375 C 194.730469 181.171875 194.824219 181.472656 194.953125 181.753906 C 193.886719 181.566406 192.75 181.472656 191.589844 181.371094 L 190.820312 181.304688 C 190.722656 181.296875 190.625 181.292969 190.527344 181.292969 C 190.164062 181.292969 189.804688 181.351562 189.464844 181.46875 C 189.09375 181.238281 188.671875 181.078125 188.21875 181.003906 C 187.71875 180.925781 187.269531 180.839844 186.847656 180.742188 C 186.5 180.660156 186.140625 180.632812 185.785156 180.667969 C 184.972656 180.746094 184.144531 180.835938 183.34375 180.984375 C 183.421875 180.269531 183.265625 179.550781 182.902344 178.933594 C 183.929688 179.714844 185.214844 180.296875 186.6875 180.613281 Z M 183.800781 166.683594 C 183.734375 166.507812 183.65625 166.339844 183.566406 166.183594 C 184.445312 166.277344 185.332031 166.382812 186.226562 166.519531 C 187.207031 166.667969 188.207031 166.371094 188.945312 165.703125 C 189 165.652344 189.054688 165.601562 189.105469 165.546875 C 189.171875 165.617188 189.238281 165.683594 189.3125 165.75 C 189.609375 166.019531 189.953125 166.226562 190.320312 166.371094 C 190.042969 166.449219 189.773438 166.566406 189.523438 166.71875 C 189.164062 166.933594 188.859375 167.210938 188.609375 167.53125 C 187.664062 167.027344 186.53125 167.015625 185.566406 167.5 C 184.980469 167.796875 184.433594 168.136719 183.933594 168.507812 C 184.058594 167.910156 184.019531 167.28125 183.800781 166.683594 Z M 189.125 107.175781 C 192.203125 107.175781 194.707031 109.683594 194.707031 112.769531 C 194.707031 114.777344 193.625 116.644531 191.875 117.640625 C 190.886719 118.207031 190.253906 119.238281 190.203125 120.378906 L 189.714844 130.824219 C 189.667969 131.898438 190.132812 132.925781 190.96875 133.589844 C 191.542969 134.046875 192.242188 134.292969 192.953125 134.308594 C 192.652344 134.425781 192.289062 134.546875 191.851562 134.664062 C 190.453125 135.039062 189.460938 136.273438 189.394531 137.722656 L 189.125 143.476562 L 188.867188 137.917969 C 188.796875 136.417969 187.734375 135.148438 186.273438 134.824219 C 185.804688 134.71875 185.402344 134.609375 185.058594 134.5 C 185.894531 134.546875 186.730469 134.265625 187.382812 133.710938 C 188.164062 133.042969 188.59375 132.050781 188.546875 131.019531 L 188.050781 120.378906 C 187.996094 119.238281 187.363281 118.207031 186.375 117.640625 C 184.628906 116.644531 183.546875 114.777344 183.546875 112.769531 C 183.546875 109.683594 186.046875 107.175781 189.125 107.175781 Z M 195.917969 140.277344 C 196.105469 140.199219 196.285156 140.113281 196.460938 140.027344 C 198.050781 142.292969 199.949219 144.589844 201.699219 146.585938 C 201.417969 146.550781 201.109375 146.527344 200.769531 146.527344 C 198.808594 146.527344 197 147.105469 195.554688 148.078125 Z M 200.214844 129.390625 C 201.488281 126.980469 201.4375 124.445312 201.199219 122.8125 C 201.945312 121.960938 203.484375 120.757812 206.226562 120.757812 C 206.925781 120.757812 207.679688 120.835938 208.46875 120.992188 C 208.839844 121.144531 210.621094 122.136719 215.6875 128.246094 C 219.160156 132.429688 223.007812 137.589844 226.40625 142.144531 C 227.9375 144.199219 229.210938 145.902344 230.285156 147.3125 C 226.671875 144.34375 218.128906 134.363281 216.691406 132.128906 C 215.542969 130.34375 213.640625 129.277344 211.605469 129.277344 C 209.773438 129.277344 208.207031 130.164062 207.414062 131.644531 C 206.734375 132.90625 206.734375 134.371094 207.386719 135.757812 C 206.828125 135.519531 206.242188 135.390625 205.65625 135.390625 C 204.371094 135.390625 203.195312 135.992188 202.453125 136.980469 C 201.558594 135.765625 200.769531 134.570312 200.183594 133.480469 C 199.769531 132.707031 199.074219 132.136719 198.261719 131.878906 C 199.191406 131.046875 199.808594 130.160156 200.214844 129.390625 Z M 202.617188 154.929688 C 202.351562 155.292969 201.679688 155.65625 200.769531 155.65625 C 199.484375 155.65625 198.835938 154.960938 198.839844 154.820312 C 198.871094 154.554688 198.871094 154.285156 198.835938 154.019531 C 198.835938 153.878906 199.484375 153.183594 200.769531 153.183594 C 200.859375 153.183594 201.046875 153.207031 201.175781 153.222656 C 201.285156 153.238281 201.394531 153.246094 201.503906 153.25 C 202.386719 153.34375 203.339844 153.519531 204.269531 153.742188 C 203.613281 153.953125 203.035156 154.367188 202.617188 154.929688 Z M 195.46875 167.3125 C 195.34375 167.613281 195.261719 167.925781 195.230469 168.242188 C 195.183594 168.203125 195.140625 168.164062 195.09375 168.125 C 194.386719 167.519531 193.589844 167.007812 192.652344 166.5625 C 192.59375 166.535156 192.542969 166.511719 192.484375 166.488281 C 193.804688 166.292969 195.117188 166.160156 196.398438 166.039062 C 196 166.375 195.675781 166.808594 195.46875 167.3125 Z M 194.871094 188.949219 C 194.460938 189.128906 194.046875 189.300781 193.625 189.472656 L 193.679688 188.285156 C 194.207031 188.367188 194.640625 188.464844 194.851562 188.582031 C 194.949219 188.667969 195.035156 188.75 195.113281 188.824219 C 195.039062 188.867188 194.960938 188.910156 194.871094 188.949219 Z M 183.632812 188.949219 C 183.324219 188.816406 183.101562 188.632812 182.992188 188.503906 C 183.078125 188.359375 183.277344 188.101562 183.648438 187.78125 C 183.777344 187.710938 184.03125 187.625 184.535156 187.53125 L 184.621094 189.367188 C 184.289062 189.230469 183.957031 189.089844 183.632812 188.949219 Z M 138.25 154.242188 C 139.851562 154.898438 141.664062 155.246094 143.484375 155.246094 C 144.894531 155.246094 146.25 155.042969 147.492188 154.648438 C 148.085938 155.214844 148.882812 155.550781 149.738281 155.558594 L 149.875 155.558594 C 152.246094 155.558594 156.039062 155.371094 158.96875 154.34375 C 159.535156 154.777344 160.238281 155.027344 160.984375 155.027344 C 161.269531 155.027344 161.839844 155.015625 162.582031 154.957031 C 162.15625 156.707031 162.25 158.648438 162.875 160.613281 C 164.082031 164.417969 167.039062 167.691406 170.785156 169.367188 C 172.152344 169.980469 173.660156 170.367188 175.253906 170.628906 C 174.957031 171.777344 174.820312 173.019531 174.855469 174.308594 C 174.804688 176.152344 175.121094 177.996094 175.742188 179.644531 C 175.34375 180.015625 174.984375 180.402344 174.667969 180.808594 C 172.300781 183.835938 171.332031 187.960938 172.144531 191.574219 C 172.792969 194.460938 174.527344 196.851562 177.070312 198.394531 C 174.722656 201.046875 173.292969 204.277344 172.738281 208.160156 C 172.683594 208.550781 172.667969 208.945312 172.699219 209.332031 C 172.59375 210.742188 173.046875 212.132812 173.96875 213.199219 C 174.984375 214.375 176.4375 215.046875 177.960938 215.046875 C 180.507812 215.046875 182.542969 213.140625 182.902344 210.410156 C 183.167969 208.429688 183.933594 206.910156 185.382812 205.660156 L 185.8125 214.886719 C 185.894531 216.660156 187.351562 218.058594 189.125 218.058594 C 190.898438 218.058594 192.359375 216.660156 192.441406 214.886719 L 192.917969 204.683594 C 194.496094 205.957031 195.320312 207.523438 195.597656 209.605469 C 195.960938 212.335938 197.996094 214.246094 200.542969 214.246094 C 202.066406 214.246094 203.519531 213.570312 204.535156 212.398438 C 205.535156 211.238281 205.984375 209.695312 205.765625 208.160156 C 205.242188 204.519531 203.960938 201.457031 201.878906 198.914062 C 205.007812 196.804688 206.753906 193.34375 206.632812 189.386719 C 206.738281 186.339844 205.722656 183.222656 203.835938 180.808594 C 203.460938 180.328125 203.027344 179.871094 202.535156 179.4375 C 203.621094 176.972656 203.933594 174.050781 203.421875 171.40625 C 204.917969 171.148438 206.390625 170.765625 207.722656 170.171875 C 212.847656 167.875 216.371094 162.609375 216.167969 157.589844 C 216.203125 156.703125 216.121094 155.835938 215.929688 155.015625 C 216.167969 155.023438 216.355469 155.027344 216.484375 155.027344 L 216.492188 155.027344 C 217.246094 155.027344 217.945312 154.773438 218.503906 154.34375 C 221.433594 155.375 225.222656 155.5625 227.59375 155.5625 L 227.730469 155.558594 C 228.582031 155.550781 229.378906 155.214844 229.976562 154.648438 C 231.214844 155.042969 232.574219 155.246094 233.980469 155.246094 C 235.804688 155.246094 237.617188 154.898438 239.21875 154.242188 C 240.417969 153.75 241.21875 152.609375 241.28125 151.316406 C 241.335938 150.097656 240.726562 148.953125 239.699219 148.324219 C 238.589844 147.375 234.785156 142.273438 231.71875 138.160156 C 219.789062 122.160156 214.113281 115.335938 209.839844 114.476562 C 208.601562 114.226562 207.386719 114.101562 206.226562 114.101562 C 204.285156 114.101562 202.589844 114.453125 201.136719 115.011719 C 201.273438 114.28125 201.34375 113.53125 201.34375 112.769531 C 201.34375 106.015625 195.863281 100.519531 189.125 100.519531 C 182.390625 100.519531 176.910156 106.015625 176.910156 112.769531 C 176.910156 113.65625 177.003906 114.53125 177.191406 115.378906 C 175.558594 114.613281 173.578125 114.101562 171.242188 114.101562 C 170.082031 114.101562 168.867188 114.226562 167.628906 114.476562 C 163.351562 115.335938 157.675781 122.164062 145.746094 138.164062 C 142.679688 142.273438 138.875 147.375 137.769531 148.324219 C 136.742188 148.953125 136.132812 150.101562 136.191406 151.316406 C 136.25 152.609375 137.054688 153.75 138.25 154.242188 " fill-opacity="1" fill-rule="nonzero"/></g><path fill="#85d2ff" d="M 177.265625 183.496094 C 178.203125 182.699219 179.851562 182.449219 181.816406 182.265625 C 182.351562 182.390625 182.890625 182.492188 183.433594 182.578125 L 183.898438 192.570312 C 181.921875 191.824219 179.925781 191.113281 178.027344 190.285156 C 175.738281 189.277344 173.734375 186.5 177.265625 183.496094 Z M 186.957031 167.855469 C 187.585938 168.152344 188.160156 168.507812 188.664062 168.9375 C 192.332031 172.085938 190.328125 174.921875 186.792969 175.65625 C 186.726562 175.667969 186.660156 175.683594 186.589844 175.695312 Z M 192.6875 184.300781 C 193.890625 185.324219 194.449219 186.320312 194.578125 187.226562 C 194.382812 188.617188 193.199219 189.726562 191.925781 190.285156 C 189.945312 191.148438 187.859375 191.886719 185.800781 192.667969 L 186.253906 182.90625 C 189.023438 183.152344 191.464844 183.261719 192.6875 184.300781 Z M 183.109375 175.644531 C 181.105469 175.210938 179.605469 174.105469 179.371094 172.648438 C 179.507812 171.75 180.097656 170.761719 181.292969 169.742188 C 181.738281 169.359375 182.242188 169.035156 182.789062 168.757812 Z M 143.429688 149.261719 C 147.070312 147.371094 157.867188 134.429688 159.289062 132.21875 C 160.714844 130.007812 164.050781 130.773438 162.625 132.941406 C 161.199219 135.105469 145.496094 150.515625 145.496094 150.515625 C 145.496094 150.515625 152.882812 150.589844 155.230469 148.652344 C 158.257812 146.15625 164.898438 139.242188 166.320312 137.691406 C 167.746094 136.144531 168.9375 137.519531 167.746094 138.734375 C 166.554688 139.949219 156.707031 149.984375 156.707031 149.984375 C 156.707031 149.984375 162.316406 149.980469 164.363281 147.75 C 166.382812 145.542969 173.082031 138.644531 175.929688 133.34375 C 176.769531 134.96875 179.074219 135.863281 181.277344 136.359375 L 182.449219 161.515625 C 177.84375 160.8125 173.363281 160.828125 170.996094 159.992188 C 167.324219 158.699219 165.699219 155.707031 167.503906 154.570312 C 167.84375 154.351562 168.386719 154.335938 168.941406 154.390625 C 169.855469 155.628906 171.523438 156.464844 173.460938 156.464844 C 176.355469 156.464844 178.707031 154.601562 178.707031 152.304688 C 178.707031 150.003906 176.355469 148.140625 173.460938 148.140625 C 173.179688 148.140625 172.910156 148.171875 172.644531 148.207031 L 172.628906 148.195312 C 172.628906 148.195312 164.230469 149.011719 162.097656 152.625 C 159.960938 156.242188 162.695312 162.300781 167.859375 164.613281 C 170.179688 165.648438 173.261719 165.914062 176.410156 166.117188 C 176.066406 166.453125 175.738281 166.800781 175.433594 167.183594 C 174.304688 168.582031 173.828125 170.585938 173.902344 172.59375 C 173.816406 174.898438 174.484375 177.308594 175.769531 178.910156 C 174.660156 179.527344 173.695312 180.261719 173.003906 181.144531 C 170.074219 184.894531 169.71875 191.472656 175.132812 194.175781 C 176.3125 194.765625 177.714844 195.230469 179.21875 195.675781 C 175.484375 197.925781 172.570312 201.167969 171.746094 206.917969 C 171.714844 207.167969 171.722656 207.398438 171.765625 207.613281 C 171.761719 207.652344 171.753906 207.683594 171.746094 207.722656 C 171.414062 210.046875 174.949219 211.179688 175.339844 208.253906 C 176.082031 202.65625 179.878906 200.117188 184.175781 198.503906 L 184.851562 213.015625 L 185.550781 198.015625 C 185.742188 197.953125 185.933594 197.890625 186.125 197.832031 C 190.277344 199.453125 193.890625 202.003906 194.613281 207.449219 C 195 210.378906 198.539062 209.246094 198.207031 206.917969 C 197.445312 201.613281 194.90625 198.445312 191.589844 196.222656 C 192.769531 195.851562 193.867188 195.457031 194.820312 194.980469 C 197.964844 193.410156 199.160156 190.535156 199.039062 187.664062 C 199.144531 185.332031 198.335938 182.921875 196.949219 181.144531 C 196.160156 180.136719 195.007812 179.316406 193.691406 178.648438 C 196.375 176.042969 196.953125 170.207031 194.519531 167.183594 C 194.4375 167.074219 194.34375 166.976562 194.253906 166.875 C 197.15625 166.675781 199.949219 166.375 202.09375 165.417969 C 206.210938 163.574219 208.78125 159.347656 208.570312 155.878906 C 208.640625 154.699219 208.417969 153.578125 207.855469 152.625 C 205.71875 149.011719 197.320312 148.195312 197.320312 148.195312 L 197.308594 148.207031 C 197.042969 148.171875 196.773438 148.140625 196.496094 148.140625 C 193.597656 148.140625 191.246094 150.003906 191.246094 152.304688 C 191.246094 152.4375 191.253906 152.574219 191.269531 152.703125 C 191.253906 152.835938 191.246094 152.96875 191.246094 153.105469 C 191.246094 155.40625 193.597656 157.269531 196.496094 157.269531 C 198.429688 157.269531 200.101562 156.429688 201.011719 155.195312 C 201.566406 155.136719 202.109375 155.15625 202.449219 155.371094 C 202.824219 155.609375 203.050781 155.925781 203.140625 156.292969 C 202.863281 157.59375 201.34375 159.152344 198.957031 159.992188 C 196.546875 160.84375 191.945312 160.8125 187.25 161.554688 L 188.433594 136.164062 C 190.375 135.640625 192.25 134.777344 192.988281 133.34375 C 195.835938 138.644531 202.535156 145.546875 204.558594 147.75 C 206.601562 149.984375 212.210938 149.984375 212.210938 149.984375 C 212.210938 149.984375 202.367188 139.949219 201.175781 138.734375 C 199.984375 137.523438 201.175781 136.148438 202.597656 137.691406 C 204.023438 139.242188 210.660156 146.15625 213.6875 148.652344 C 216.035156 150.589844 223.421875 150.515625 223.421875 150.515625 C 223.421875 150.515625 207.714844 135.105469 206.292969 132.941406 C 204.871094 130.773438 208.207031 130.007812 209.628906 132.21875 C 211.050781 134.429688 221.851562 147.371094 225.488281 149.261719 C 227.773438 150.449219 231.074219 150.515625 233.691406 149.445312 C 230.664062 147.859375 210.875 117.222656 204.914062 116.027344 C 196.269531 114.289062 193.386719 120.414062 193.386719 120.414062 C 193.386719 120.414062 195.648438 127.296875 188.753906 129.265625 L 189.242188 118.820312 C 191.933594 117.285156 193.75 114.382812 193.75 111.054688 C 193.75 106.128906 189.765625 102.132812 184.851562 102.132812 C 179.9375 102.132812 175.953125 106.128906 175.953125 111.054688 C 175.953125 114.382812 177.769531 117.285156 180.460938 118.820312 L 180.957031 129.460938 C 173.101562 127.808594 175.535156 120.414062 175.535156 120.414062 C 175.535156 120.414062 172.652344 114.289062 164.003906 116.023438 C 158.042969 117.222656 138.253906 147.859375 135.230469 149.445312 C 137.84375 150.515625 141.144531 150.449219 143.429688 149.261719 " fill-opacity="1" fill-rule="nonzero"/><g clip-path="url(#9940f726c9)"><path fill="#3182b2" d="M 177.265625 183.496094 L 178.433594 184.878906 C 178.503906 184.820312 178.625 184.742188 178.816406 184.660156 C 179.101562 184.535156 179.535156 184.410156 180.078125 184.3125 C 180.621094 184.214844 181.269531 184.140625 181.984375 184.074219 L 181.816406 182.265625 L 181.40625 184.035156 C 181.992188 184.171875 182.578125 184.28125 183.152344 184.371094 L 183.433594 182.578125 L 181.625 182.664062 L 182.089844 192.65625 L 183.898438 192.570312 L 184.535156 190.871094 C 182.539062 190.121094 180.570312 189.414062 178.753906 188.621094 C 178.285156 188.417969 177.828125 188.085938 177.546875 187.746094 C 177.40625 187.578125 177.304688 187.410156 177.246094 187.261719 C 177.183594 187.109375 177.15625 186.976562 177.15625 186.828125 C 177.160156 186.644531 177.195312 186.421875 177.371094 186.097656 C 177.546875 185.773438 177.875 185.355469 178.433594 184.878906 L 177.265625 183.496094 L 176.09375 182.113281 C 175.269531 182.8125 174.636719 183.554688 174.199219 184.351562 C 173.761719 185.144531 173.535156 186 173.535156 186.828125 C 173.535156 187.472656 173.671875 188.085938 173.894531 188.632812 C 174.230469 189.457031 174.753906 190.132812 175.34375 190.675781 C 175.9375 191.21875 176.605469 191.640625 177.300781 191.945312 L 177.304688 191.945312 C 179.28125 192.8125 181.304688 193.53125 183.261719 194.269531 C 183.832031 194.484375 184.46875 194.398438 184.960938 194.039062 C 185.457031 193.675781 185.734375 193.097656 185.707031 192.484375 L 185.238281 182.492188 C 185.199219 181.632812 184.558594 180.917969 183.710938 180.785156 C 183.207031 180.707031 182.710938 180.613281 182.230469 180.5 C 182.035156 180.453125 181.851562 180.441406 181.648438 180.457031 C 180.636719 180.554688 179.664062 180.664062 178.738281 180.886719 C 178.273438 180.996094 177.816406 181.136719 177.375 181.328125 C 176.929688 181.523438 176.492188 181.773438 176.09375 182.113281 Z M 186.957031 167.855469 L 186.183594 169.496094 C 186.695312 169.742188 187.132812 170.011719 187.488281 170.316406 C 188.050781 170.800781 188.398438 171.234375 188.582031 171.5625 C 188.769531 171.894531 188.804688 172.105469 188.804688 172.25 C 188.804688 172.371094 188.78125 172.460938 188.71875 172.585938 C 188.671875 172.679688 188.597656 172.789062 188.480469 172.90625 C 188.308594 173.082031 188.042969 173.28125 187.691406 173.453125 C 187.34375 173.628906 186.910156 173.777344 186.425781 173.878906 C 186.371094 173.890625 186.300781 173.902344 186.230469 173.917969 L 186.589844 175.695312 L 188.398438 175.78125 L 188.765625 167.9375 L 186.957031 167.855469 L 186.183594 169.496094 L 186.957031 167.855469 L 185.148438 167.769531 L 184.78125 175.613281 C 184.757812 176.167969 184.992188 176.710938 185.414062 177.074219 C 185.835938 177.4375 186.40625 177.585938 186.949219 177.476562 C 187.015625 177.460938 187.085938 177.445312 187.160156 177.433594 C 187.832031 177.292969 188.472656 177.085938 189.070312 176.816406 C 189.964844 176.40625 190.769531 175.847656 191.394531 175.082031 C 191.703125 174.699219 191.964844 174.265625 192.144531 173.785156 C 192.328125 173.304688 192.425781 172.78125 192.425781 172.25 C 192.425781 171.394531 192.171875 170.539062 191.726562 169.761719 C 191.277344 168.976562 190.648438 168.253906 189.839844 167.558594 C 189.1875 167 188.472656 166.566406 187.730469 166.214844 C 187.183594 165.957031 186.542969 165.984375 186.023438 166.300781 C 185.507812 166.609375 185.175781 167.164062 185.148438 167.769531 Z M 192.6875 184.300781 L 191.515625 185.683594 C 192.003906 186.097656 192.316406 186.46875 192.503906 186.769531 C 192.691406 187.074219 192.757812 187.296875 192.785156 187.480469 L 194.578125 187.226562 L 192.785156 186.976562 C 192.765625 187.105469 192.726562 187.234375 192.652344 187.382812 C 192.542969 187.597656 192.347656 187.839844 192.09375 188.0625 C 191.835938 188.28125 191.515625 188.480469 191.199219 188.621094 C 189.304688 189.449219 187.242188 190.179688 185.160156 190.96875 L 185.800781 192.667969 L 187.605469 192.75 L 188.0625 182.992188 L 186.253906 182.90625 L 186.09375 184.714844 C 187.5 184.839844 188.777344 184.929688 189.75 185.09375 C 190.234375 185.175781 190.644531 185.277344 190.945312 185.386719 C 191.246094 185.492188 191.429688 185.609375 191.515625 185.683594 L 192.6875 184.300781 L 193.859375 182.914062 C 193.335938 182.472656 192.757812 182.183594 192.167969 181.96875 C 191.285156 181.65625 190.367188 181.5 189.402344 181.378906 C 188.441406 181.261719 187.433594 181.1875 186.414062 181.097656 C 185.925781 181.054688 185.433594 181.214844 185.0625 181.539062 C 184.695312 181.863281 184.46875 182.332031 184.445312 182.820312 L 183.992188 192.582031 C 183.960938 193.195312 184.242188 193.773438 184.734375 194.132812 C 185.230469 194.496094 185.867188 194.582031 186.4375 194.363281 C 188.472656 193.59375 190.585938 192.847656 192.648438 191.945312 C 193.5 191.570312 194.308594 191.03125 194.984375 190.300781 C 195.320312 189.933594 195.625 189.515625 195.867188 189.042969 C 196.109375 188.574219 196.289062 188.046875 196.371094 187.480469 C 196.394531 187.3125 196.394531 187.144531 196.371094 186.976562 C 196.269531 186.246094 195.996094 185.523438 195.570312 184.84375 C 195.144531 184.164062 194.574219 183.523438 193.859375 182.914062 Z M 183.109375 175.644531 L 183.488281 173.867188 C 182.703125 173.703125 182.070312 173.402344 181.6875 173.101562 C 181.496094 172.949219 181.367188 172.800781 181.289062 172.679688 C 181.207031 172.554688 181.175781 172.457031 181.160156 172.359375 L 179.371094 172.648438 L 181.160156 172.921875 C 181.183594 172.761719 181.257812 172.535156 181.457031 172.226562 C 181.652344 171.917969 181.976562 171.539062 182.46875 171.121094 C 182.785156 170.847656 183.164062 170.601562 183.601562 170.378906 L 182.789062 168.757812 L 180.980469 168.84375 L 181.300781 175.726562 L 183.109375 175.644531 L 183.488281 173.867188 L 183.109375 175.644531 L 184.917969 175.558594 L 184.597656 168.671875 C 184.566406 168.0625 184.230469 167.5 183.699219 167.191406 C 183.171875 166.878906 182.519531 166.859375 181.972656 167.136719 C 181.316406 167.46875 180.691406 167.867188 180.117188 168.359375 C 179.414062 168.964844 178.847656 169.589844 178.417969 170.253906 C 177.984375 170.921875 177.695312 171.636719 177.582031 172.371094 C 177.554688 172.558594 177.554688 172.75 177.585938 172.933594 C 177.683594 173.566406 177.925781 174.152344 178.253906 174.660156 C 178.75 175.421875 179.429688 176.007812 180.191406 176.457031 C 180.957031 176.90625 181.8125 177.21875 182.730469 177.417969 C 183.277344 177.535156 183.851562 177.394531 184.28125 177.027344 C 184.707031 176.664062 184.941406 176.121094 184.917969 175.558594 Z M 143.429688 149.261719 L 144.261719 150.871094 C 144.597656 150.699219 144.914062 150.496094 145.242188 150.261719 C 145.855469 149.824219 146.503906 149.277344 147.203125 148.644531 C 148.425781 147.53125 149.792969 146.148438 151.1875 144.652344 C 153.28125 142.414062 155.433594 139.9375 157.183594 137.835938 C 158.058594 136.785156 158.832031 135.832031 159.449219 135.042969 C 159.757812 134.648438 160.027344 134.296875 160.253906 133.992188 C 160.480469 133.6875 160.660156 133.433594 160.808594 133.203125 C 160.9375 133.003906 161.082031 132.886719 161.222656 132.808594 C 161.363281 132.730469 161.511719 132.707031 161.585938 132.707031 L 161.625 132.710938 L 161.632812 132.710938 L 161.648438 132.625 L 161.621094 132.707031 L 161.632812 132.710938 L 161.648438 132.625 L 161.621094 132.707031 L 161.75 132.316406 L 161.527344 132.660156 C 161.574219 132.691406 161.605469 132.703125 161.621094 132.707031 L 161.75 132.316406 L 161.527344 132.660156 L 161.953125 132 L 161.277344 132.390625 C 161.359375 132.527344 161.460938 132.617188 161.527344 132.660156 L 161.953125 132 L 161.277344 132.390625 L 162.011719 131.964844 L 161.160156 131.964844 C 161.160156 132.078125 161.199219 132.253906 161.277344 132.390625 L 162.011719 131.964844 L 161.160156 131.964844 L 161.585938 131.964844 L 161.179688 131.824219 C 161.179688 131.828125 161.160156 131.878906 161.160156 131.964844 L 161.585938 131.964844 L 161.179688 131.824219 L 161.175781 131.832031 C 161.171875 131.84375 161.152344 131.882812 161.113281 131.941406 C 161.105469 131.953125 161.070312 132 161.019531 132.070312 C 160.917969 132.203125 160.746094 132.410156 160.53125 132.65625 C 160.128906 133.121094 159.558594 133.738281 158.886719 134.453125 C 156.519531 136.964844 152.847656 140.667969 149.777344 143.726562 C 148.242188 145.257812 146.855469 146.632812 145.851562 147.621094 C 145.347656 148.117188 144.945312 148.515625 144.664062 148.792969 C 144.382812 149.066406 144.230469 149.21875 144.230469 149.21875 C 143.707031 149.730469 143.542969 150.515625 143.816406 151.195312 C 144.089844 151.875 144.75 152.328125 145.480469 152.332031 C 145.484375 152.332031 145.527344 152.332031 145.601562 152.332031 C 146.097656 152.332031 148.011719 152.316406 150.148438 152.0625 C 151.222656 151.933594 152.347656 151.746094 153.414062 151.453125 C 153.949219 151.304688 154.464844 151.128906 154.964844 150.90625 C 155.460938 150.683594 155.9375 150.417969 156.382812 150.054688 C 157.199219 149.378906 158.203125 148.457031 159.289062 147.417969 C 160.917969 145.859375 162.734375 144.035156 164.277344 142.453125 C 165.050781 141.660156 165.753906 140.929688 166.335938 140.320312 C 166.917969 139.710938 167.371094 139.230469 167.648438 138.921875 L 167.648438 138.925781 C 167.707031 138.863281 167.753906 138.820312 167.785156 138.796875 L 167.828125 138.765625 L 167.539062 138.21875 L 167.539062 138.820312 C 167.722656 138.820312 167.816406 138.769531 167.828125 138.765625 L 167.539062 138.21875 L 167.539062 138.820312 L 167.539062 137.753906 L 167.136719 138.738281 C 167.28125 138.796875 167.425781 138.820312 167.539062 138.820312 L 167.539062 137.753906 L 167.136719 138.738281 L 167.582031 137.648438 L 166.582031 138.269531 C 166.703125 138.46875 166.914062 138.648438 167.136719 138.738281 L 167.582031 137.648438 L 166.582031 138.269531 L 167.460938 137.722656 L 166.421875 137.722656 C 166.421875 137.867188 166.460938 138.066406 166.582031 138.269531 L 167.460938 137.722656 L 166.421875 137.722656 L 167.058594 137.722656 L 166.472656 137.449219 C 166.453125 137.488281 166.421875 137.582031 166.421875 137.722656 L 167.058594 137.722656 L 166.472656 137.449219 L 166.699219 137.554688 L 166.484375 137.429688 L 166.472656 137.449219 L 166.699219 137.554688 L 166.484375 137.429688 L 166.453125 137.460938 C 165.261719 138.675781 155.417969 148.707031 155.417969 148.707031 C 154.90625 149.234375 154.757812 150.007812 155.039062 150.683594 C 155.320312 151.359375 155.976562 151.796875 156.707031 151.796875 C 156.769531 151.796875 158.25 151.796875 160.066406 151.492188 C 160.980469 151.339844 161.976562 151.109375 162.953125 150.734375 C 163.441406 150.546875 163.921875 150.320312 164.386719 150.035156 C 164.851562 149.753906 165.296875 149.410156 165.695312 148.976562 C 166.183594 148.445312 166.988281 147.59375 167.953125 146.546875 C 169.402344 144.972656 171.21875 142.945312 172.957031 140.792969 C 174.699219 138.636719 176.363281 136.363281 177.523438 134.207031 L 175.929688 133.34375 L 174.324219 134.175781 C 174.65625 134.828125 175.117188 135.363281 175.625 135.804688 C 176.386719 136.464844 177.257812 136.929688 178.15625 137.296875 C 179.054688 137.664062 179.984375 137.929688 180.882812 138.128906 L 181.277344 136.359375 L 179.46875 136.441406 L 180.640625 161.597656 L 182.449219 161.515625 L 182.722656 159.71875 C 180.332031 159.355469 178.019531 159.183594 176.054688 158.996094 C 175.070312 158.902344 174.175781 158.808594 173.410156 158.6875 C 172.648438 158.574219 172.019531 158.429688 171.597656 158.28125 C 170.511719 157.898438 169.679688 157.339844 169.179688 156.824219 C 168.925781 156.566406 168.757812 156.324219 168.667969 156.144531 C 168.625 156.058594 168.597656 155.984375 168.585938 155.9375 L 168.574219 155.886719 L 168.574219 155.875 L 168.265625 155.875 L 168.527344 156.019531 C 168.566406 155.957031 168.578125 155.878906 168.574219 155.875 L 168.265625 155.875 L 168.527344 156.019531 L 168.226562 155.851562 L 168.476562 156.09375 C 168.488281 156.082031 168.511719 156.054688 168.527344 156.019531 L 168.226562 155.851562 L 168.476562 156.09375 L 168.359375 155.984375 L 168.460938 156.109375 L 168.476562 156.09375 L 168.359375 155.984375 L 168.460938 156.109375 L 168.457031 156.105469 L 168.460938 156.109375 L 168.457031 156.105469 L 168.460938 156.109375 L 168.464844 156.105469 L 168.46875 156.105469 L 168.058594 155.453125 L 168.328125 156.175781 C 168.359375 156.164062 168.40625 156.140625 168.46875 156.105469 L 168.058594 155.453125 L 168.328125 156.175781 L 168.199219 155.832031 L 168.285156 156.1875 L 168.328125 156.175781 L 168.199219 155.832031 L 168.285156 156.1875 L 168.273438 156.144531 L 168.28125 156.191406 L 168.285156 156.1875 L 168.273438 156.144531 L 168.28125 156.191406 C 168.289062 156.1875 168.351562 156.179688 168.445312 156.179688 C 168.527344 156.179688 168.636719 156.183594 168.753906 156.199219 L 168.941406 154.390625 L 167.488281 155.472656 C 168.144531 156.359375 169.027344 157.054688 170.046875 157.535156 C 171.070312 158.015625 172.230469 158.28125 173.460938 158.28125 C 175.292969 158.277344 176.992188 157.699219 178.292969 156.671875 C 178.941406 156.15625 179.496094 155.519531 179.890625 154.78125 C 180.289062 154.042969 180.519531 153.1875 180.519531 152.304688 C 180.519531 151.417969 180.289062 150.566406 179.890625 149.824219 C 179.296875 148.714844 178.355469 147.847656 177.246094 147.25 C 176.132812 146.65625 174.835938 146.328125 173.460938 146.328125 C 173.042969 146.328125 172.695312 146.371094 172.417969 146.40625 L 172.644531 148.207031 L 173.71875 146.746094 L 173.707031 146.738281 C 173.34375 146.46875 172.902344 146.347656 172.457031 146.390625 C 172.394531 146.398438 170.21875 146.605469 167.683594 147.304688 C 166.414062 147.660156 165.050781 148.132812 163.789062 148.8125 C 163.15625 149.148438 162.550781 149.542969 161.992188 150.011719 C 161.4375 150.484375 160.933594 151.039062 160.539062 151.703125 C 159.855469 152.859375 159.554688 154.171875 159.554688 155.46875 C 159.554688 156.542969 159.753906 157.621094 160.113281 158.667969 C 160.648438 160.234375 161.539062 161.734375 162.722656 163.050781 C 163.90625 164.367188 165.390625 165.492188 167.121094 166.269531 C 168.503906 166.886719 170.003906 167.234375 171.550781 167.472656 C 173.101562 167.707031 174.707031 167.828125 176.292969 167.929688 L 176.410156 166.117188 L 175.152344 164.8125 C 174.769531 165.1875 174.386719 165.589844 174.023438 166.042969 C 173.324219 166.914062 172.84375 167.914062 172.535156 168.957031 C 172.226562 170.003906 172.085938 171.097656 172.085938 172.191406 C 172.085938 172.347656 172.085938 172.503906 172.09375 172.660156 L 173.902344 172.59375 L 172.09375 172.523438 C 172.085938 172.679688 172.085938 172.835938 172.085938 172.996094 C 172.085938 174.269531 172.277344 175.542969 172.652344 176.746094 C 173.027344 177.945312 173.585938 179.082031 174.363281 180.050781 L 175.769531 178.910156 L 174.890625 177.324219 C 173.640625 178.019531 172.480469 178.878906 171.582031 180.027344 C 170.796875 181.027344 170.179688 182.179688 169.753906 183.402344 C 169.332031 184.625 169.09375 185.929688 169.09375 187.25 C 169.09375 188.890625 169.460938 190.566406 170.320312 192.078125 C 170.75 192.832031 171.296875 193.539062 171.96875 194.171875 C 172.636719 194.800781 173.425781 195.351562 174.328125 195.800781 C 175.675781 196.472656 177.167969 196.960938 178.707031 197.417969 L 179.21875 195.675781 L 178.289062 194.121094 C 176.273438 195.332031 174.398438 196.867188 172.921875 198.925781 C 171.445312 200.976562 170.398438 203.535156 169.957031 206.660156 C 169.929688 206.847656 169.917969 207.03125 169.917969 207.214844 C 169.917969 207.476562 169.941406 207.730469 169.992188 207.972656 L 171.765625 207.613281 L 169.976562 207.347656 L 170.742188 207.460938 L 169.976562 207.328125 L 169.976562 207.347656 L 170.742188 207.460938 L 169.976562 207.328125 L 169.976562 207.332031 C 169.976562 207.347656 169.964844 207.394531 169.957031 207.464844 C 169.929688 207.652344 169.917969 207.839844 169.917969 208.027344 C 169.914062 208.582031 170.035156 209.117188 170.25 209.585938 C 170.570312 210.289062 171.078125 210.839844 171.667969 211.21875 C 172.261719 211.597656 172.945312 211.820312 173.683594 211.820312 C 174.074219 211.820312 174.480469 211.753906 174.878906 211.605469 C 175.472656 211.386719 176.027344 210.960938 176.417969 210.40625 C 176.8125 209.851562 177.042969 209.195312 177.132812 208.496094 C 177.296875 207.277344 177.613281 206.273438 178.046875 205.414062 C 178.695312 204.125 179.605469 203.132812 180.753906 202.289062 C 181.902344 201.445312 183.292969 200.769531 184.8125 200.203125 L 184.175781 198.503906 L 182.367188 198.585938 L 183.042969 213.101562 C 183.089844 214.066406 183.882812 214.832031 184.851562 214.832031 C 185.816406 214.832031 186.613281 214.066406 186.660156 213.101562 L 187.359375 198.101562 L 185.550781 198.015625 L 186.113281 199.742188 C 186.292969 199.683594 186.476562 199.621094 186.667969 199.5625 L 186.125 197.832031 L 185.46875 199.523438 C 186.4375 199.902344 187.355469 200.328125 188.179688 200.816406 C 189.421875 201.550781 190.453125 202.417969 191.238281 203.507812 C 192.019531 204.59375 192.578125 205.914062 192.816406 207.691406 C 192.878906 208.160156 193.003906 208.605469 193.195312 209.015625 C 193.476562 209.636719 193.9375 210.171875 194.496094 210.515625 C 195.054688 210.867188 195.683594 211.019531 196.269531 211.019531 C 196.761719 211.019531 197.230469 210.914062 197.664062 210.738281 C 198.308594 210.472656 198.886719 210.035156 199.324219 209.433594 C 199.542969 209.132812 199.722656 208.792969 199.84375 208.417969 C 199.96875 208.046875 200.039062 207.640625 200.035156 207.226562 C 200.035156 207.039062 200.023438 206.851562 199.996094 206.660156 C 199.585938 203.777344 198.667969 201.378906 197.367188 199.414062 C 196.066406 197.441406 194.40625 195.925781 192.59375 194.710938 L 191.589844 196.222656 L 192.125 197.953125 C 193.351562 197.570312 194.535156 197.148438 195.625 196.605469 C 196.523438 196.15625 197.316406 195.605469 197.984375 194.972656 C 198.988281 194.027344 199.722656 192.90625 200.183594 191.71875 C 200.648438 190.53125 200.855469 189.285156 200.855469 188.054688 C 200.855469 187.898438 200.851562 187.746094 200.847656 187.589844 L 199.039062 187.664062 L 200.847656 187.746094 C 200.855469 187.582031 200.859375 187.414062 200.855469 187.25 C 200.855469 185.929688 200.621094 184.628906 200.195312 183.402344 C 199.769531 182.179688 199.15625 181.03125 198.371094 180.027344 C 197.859375 179.371094 197.257812 178.808594 196.601562 178.316406 C 195.949219 177.824219 195.242188 177.402344 194.511719 177.027344 L 193.691406 178.648438 L 194.949219 179.953125 C 195.960938 178.96875 196.671875 177.730469 197.152344 176.398438 C 197.625 175.066406 197.867188 173.625 197.871094 172.1875 C 197.871094 171.097656 197.726562 170.003906 197.417969 168.957031 C 197.109375 167.914062 196.628906 166.914062 195.929688 166.042969 L 195.929688 166.046875 C 195.785156 165.867188 195.679688 165.75 195.621094 165.6875 L 194.253906 166.875 L 194.378906 168.6875 C 195.851562 168.585938 197.328125 168.457031 198.753906 168.222656 C 200.175781 167.984375 201.554688 167.644531 202.832031 167.074219 C 205.140625 166.039062 207.007812 164.382812 208.3125 162.480469 C 208.96875 161.53125 209.484375 160.515625 209.839844 159.46875 C 210.195312 158.425781 210.394531 157.347656 210.394531 156.273438 C 210.394531 156.105469 210.390625 155.9375 210.378906 155.769531 L 208.570312 155.878906 L 210.378906 155.984375 C 210.390625 155.808594 210.394531 155.640625 210.394531 155.46875 C 210.394531 154.171875 210.097656 152.863281 209.414062 151.703125 C 209.019531 151.039062 208.515625 150.484375 207.960938 150.011719 C 206.984375 149.191406 205.855469 148.601562 204.710938 148.128906 C 202.992188 147.429688 201.21875 147.007812 199.855469 146.746094 C 198.488281 146.488281 197.535156 146.394531 197.496094 146.390625 C 197.035156 146.34375 196.578125 146.476562 196.214844 146.761719 L 196.203125 146.769531 L 197.308594 148.207031 L 197.535156 146.40625 C 197.257812 146.371094 196.910156 146.328125 196.496094 146.328125 C 194.65625 146.328125 192.964844 146.90625 191.660156 147.9375 C 191.007812 148.453125 190.457031 149.085938 190.0625 149.824219 C 189.664062 150.566406 189.433594 151.417969 189.433594 152.304688 C 189.433594 152.523438 189.449219 152.730469 189.472656 152.921875 L 191.269531 152.703125 L 189.472656 152.484375 C 189.449219 152.675781 189.433594 152.886719 189.433594 153.105469 C 189.433594 153.992188 189.664062 154.84375 190.0625 155.582031 C 190.65625 156.695312 191.597656 157.5625 192.707031 158.160156 C 193.820312 158.753906 195.117188 159.082031 196.496094 159.085938 C 197.722656 159.082031 198.882812 158.816406 199.90625 158.339844 C 200.925781 157.855469 201.8125 157.160156 202.464844 156.273438 L 201.011719 155.195312 L 201.195312 157 C 201.3125 156.988281 201.417969 156.984375 201.503906 156.984375 C 201.601562 156.980469 201.664062 156.992188 201.671875 156.992188 L 201.691406 156.882812 L 201.664062 156.992188 L 201.671875 156.992188 L 201.691406 156.882812 L 201.664062 156.992188 L 201.839844 156.351562 L 201.492188 156.910156 C 201.585938 156.96875 201.644531 156.984375 201.664062 156.992188 L 201.839844 156.351562 L 201.492188 156.910156 L 201.484375 156.90625 L 201.492188 156.910156 L 201.640625 156.714844 L 201.4375 156.847656 C 201.460938 156.886719 201.488281 156.910156 201.492188 156.910156 L 201.640625 156.714844 L 201.4375 156.847656 L 201.753906 156.636719 L 201.382812 156.730469 C 201.390625 156.761719 201.414062 156.8125 201.4375 156.847656 L 201.753906 156.636719 L 201.382812 156.730469 L 203.140625 156.292969 L 201.371094 155.910156 C 201.359375 155.976562 201.304688 156.128906 201.183594 156.320312 C 201 156.609375 200.664062 156.980469 200.183594 157.332031 C 199.707031 157.6875 199.089844 158.023438 198.359375 158.28125 C 197.925781 158.433594 197.28125 158.578125 196.5 158.695312 C 195.324219 158.875 193.847656 159.003906 192.21875 159.148438 C 190.585938 159.300781 188.796875 159.472656 186.96875 159.761719 L 187.25 161.554688 L 189.058594 161.640625 L 190.242188 136.246094 L 188.433594 136.164062 L 188.902344 137.917969 C 189.972656 137.625 191.058594 137.242188 192.0625 136.671875 C 192.558594 136.382812 193.039062 136.050781 193.476562 135.640625 C 193.910156 135.234375 194.300781 134.75 194.597656 134.175781 L 192.988281 133.34375 L 191.394531 134.207031 C 192.167969 135.644531 193.167969 137.132812 194.261719 138.605469 C 195.902344 140.816406 197.765625 142.992188 199.410156 144.832031 C 200.234375 145.753906 201 146.585938 201.65625 147.292969 C 202.3125 148 202.859375 148.582031 203.226562 148.976562 C 203.621094 149.410156 204.066406 149.753906 204.53125 150.035156 C 205.34375 150.53125 206.214844 150.855469 207.066406 151.097656 C 208.347656 151.460938 209.605469 151.625 210.5625 151.710938 C 211.519531 151.796875 212.171875 151.796875 212.210938 151.796875 C 212.941406 151.796875 213.597656 151.359375 213.878906 150.683594 C 214.160156 150.007812 214.011719 149.234375 213.5 148.707031 C 213.5 148.707031 213.460938 148.671875 213.390625 148.597656 C 212.304688 147.488281 203.582031 138.601562 202.464844 137.460938 L 202.433594 137.425781 L 201.980469 137.722656 L 202.496094 137.722656 C 202.496094 137.519531 202.433594 137.425781 202.433594 137.425781 L 201.980469 137.722656 L 202.496094 137.722656 L 201.503906 137.722656 L 202.433594 138.070312 C 202.480469 137.941406 202.496094 137.820312 202.496094 137.722656 L 201.503906 137.722656 L 202.433594 138.070312 L 201.34375 137.664062 L 202 138.621094 C 202.207031 138.480469 202.363281 138.265625 202.433594 138.070312 L 201.34375 137.664062 L 202 138.621094 L 201.378906 137.714844 L 201.378906 138.820312 C 201.550781 138.824219 201.792969 138.765625 202 138.621094 L 201.378906 137.714844 L 201.378906 138.820312 L 201.378906 138.222656 L 201.089844 138.765625 C 201.097656 138.769531 201.195312 138.820312 201.378906 138.820312 L 201.378906 138.222656 L 201.089844 138.765625 L 201.09375 138.765625 C 201.101562 138.769531 201.167969 138.816406 201.269531 138.925781 C 201.640625 139.332031 202.324219 140.054688 203.203125 140.96875 C 204.515625 142.335938 206.253906 144.109375 207.953125 145.789062 C 208.804688 146.628906 209.648438 147.445312 210.429688 148.171875 C 211.207031 148.902344 211.921875 149.546875 212.539062 150.054688 C 212.980469 150.417969 213.460938 150.6875 213.957031 150.910156 C 214.824219 151.292969 215.765625 151.550781 216.726562 151.742188 C 218.164062 152.03125 219.640625 152.175781 220.851562 152.25 C 222.0625 152.328125 222.996094 152.332031 223.320312 152.332031 C 223.390625 152.332031 223.429688 152.332031 223.433594 152.332031 C 224.164062 152.328125 224.828125 151.878906 225.101562 151.199219 C 225.375 150.515625 225.210938 149.734375 224.6875 149.21875 C 224.6875 149.21875 224.628906 149.160156 224.511719 149.046875 C 223.652344 148.199219 219.75 144.359375 215.90625 140.484375 C 213.980469 138.546875 212.074219 136.601562 210.570312 135.023438 C 209.820312 134.234375 209.171875 133.539062 208.679688 132.988281 C 208.4375 132.714844 208.230469 132.476562 208.078125 132.292969 C 207.925781 132.109375 207.820312 131.964844 207.804688 131.941406 C 207.777344 131.902344 207.761719 131.871094 207.75 131.851562 L 207.738281 131.824219 L 207.328125 131.964844 L 207.757812 131.964844 C 207.757812 131.878906 207.742188 131.828125 207.738281 131.824219 L 207.328125 131.964844 L 207.757812 131.964844 L 206.910156 131.964844 L 207.65625 132.359375 C 207.726562 132.230469 207.757812 132.070312 207.757812 131.964844 L 206.910156 131.964844 L 207.65625 132.359375 L 206.910156 131.964844 L 207.476562 132.59375 C 207.535156 132.539062 207.601562 132.460938 207.65625 132.359375 L 206.910156 131.964844 L 207.476562 132.59375 L 207.132812 132.214844 L 207.296875 132.707031 C 207.316406 132.699219 207.386719 132.675781 207.476562 132.59375 L 207.132812 132.214844 L 207.296875 132.707031 L 207.257812 132.589844 L 207.285156 132.710938 L 207.296875 132.707031 L 207.257812 132.589844 L 207.285156 132.710938 L 207.289062 132.710938 L 207.332031 132.707031 C 207.40625 132.707031 207.554688 132.730469 207.695312 132.808594 C 207.835938 132.886719 207.980469 133.003906 208.109375 133.203125 C 208.230469 133.390625 208.371094 133.589844 208.542969 133.828125 C 208.859375 134.265625 209.285156 134.8125 209.792969 135.453125 C 211.574219 137.695312 214.410156 141.058594 217.210938 144.09375 C 218.613281 145.613281 220 147.042969 221.253906 148.21875 C 221.882812 148.804688 222.476562 149.332031 223.035156 149.777344 C 223.597656 150.222656 224.113281 150.589844 224.65625 150.871094 C 226.183594 151.664062 227.9375 152.015625 229.707031 152.019531 C 231.289062 152.019531 232.894531 151.730469 234.375 151.125 C 235.027344 150.859375 235.464844 150.234375 235.5 149.53125 C 235.53125 148.824219 235.152344 148.164062 234.527344 147.835938 L 234.238281 148.390625 L 234.566406 147.859375 L 234.527344 147.835938 L 234.238281 148.390625 L 234.566406 147.859375 L 234.445312 148.0625 L 234.574219 147.863281 L 234.566406 147.859375 L 234.445312 148.0625 L 234.574219 147.863281 L 234.570312 147.863281 C 234.558594 147.851562 234.484375 147.796875 234.386719 147.707031 C 234.195312 147.53125 233.902344 147.226562 233.558594 146.832031 C 232.90625 146.09375 232.054688 145.035156 231.074219 143.769531 C 229.359375 141.554688 227.238281 138.691406 224.957031 135.636719 C 221.53125 131.050781 217.742188 126.03125 214.332031 122.027344 C 212.625 120.023438 211.015625 118.269531 209.550781 116.929688 C 208.816406 116.257812 208.121094 115.6875 207.433594 115.226562 C 207.089844 115 206.746094 114.800781 206.394531 114.632812 C 206.039062 114.464844 205.671875 114.328125 205.269531 114.246094 C 204.085938 114.007812 202.980469 113.898438 201.953125 113.898438 C 200.140625 113.898438 198.570312 114.238281 197.261719 114.765625 C 195.292969 115.550781 193.929688 116.738281 193.0625 117.730469 C 192.191406 118.722656 191.800781 119.527344 191.75 119.640625 C 191.550781 120.058594 191.519531 120.542969 191.664062 120.984375 L 192.402344 120.738281 L 191.664062 120.972656 L 191.664062 120.984375 L 192.402344 120.738281 L 191.664062 120.972656 C 191.667969 120.984375 191.933594 121.867188 191.929688 122.921875 C 191.929688 123.351562 191.886719 123.808594 191.785156 124.246094 C 191.707031 124.578125 191.59375 124.898438 191.441406 125.203125 C 191.207031 125.660156 190.890625 126.082031 190.398438 126.476562 C 189.90625 126.871094 189.230469 127.242188 188.257812 127.519531 L 188.753906 129.265625 L 190.5625 129.351562 L 191.050781 118.902344 L 189.242188 118.820312 L 190.136719 120.398438 C 191.757812 119.472656 193.109375 118.144531 194.0625 116.539062 C 195.011719 114.933594 195.5625 113.050781 195.5625 111.054688 C 195.5625 108.097656 194.359375 105.398438 192.421875 103.460938 C 190.492188 101.519531 187.800781 100.316406 184.851562 100.316406 C 181.898438 100.316406 179.210938 101.519531 177.277344 103.460938 C 175.34375 105.398438 174.140625 108.097656 174.140625 111.054688 C 174.140625 113.050781 174.6875 114.933594 175.640625 116.539062 C 176.59375 118.140625 177.945312 119.472656 179.566406 120.394531 L 180.460938 118.820312 L 178.652344 118.902344 L 179.148438 129.546875 L 180.957031 129.460938 L 181.328125 127.683594 C 180.289062 127.464844 179.53125 127.144531 178.964844 126.792969 C 178.539062 126.527344 178.222656 126.242188 177.96875 125.945312 C 177.59375 125.5 177.355469 125.015625 177.199219 124.5 C 177.046875 123.984375 176.988281 123.433594 176.988281 122.921875 C 176.988281 122.359375 177.058594 121.84375 177.132812 121.484375 C 177.167969 121.304688 177.203125 121.164062 177.226562 121.078125 C 177.238281 121.035156 177.246094 121.003906 177.25 120.984375 L 177.253906 120.972656 L 176.519531 120.738281 L 177.253906 120.980469 L 177.253906 120.972656 L 176.519531 120.738281 L 177.253906 120.980469 C 177.398438 120.539062 177.367188 120.058594 177.171875 119.640625 C 177.097656 119.488281 176.433594 118.105469 174.820312 116.695312 C 174.015625 115.992188 172.96875 115.285156 171.65625 114.761719 C 170.347656 114.238281 168.777344 113.898438 166.964844 113.898438 C 165.9375 113.898438 164.832031 114.007812 163.648438 114.246094 C 162.960938 114.386719 162.375 114.675781 161.789062 115.03125 C 161.238281 115.371094 160.691406 115.78125 160.121094 116.261719 C 159.058594 117.160156 157.917969 118.296875 156.707031 119.617188 C 154.589844 121.921875 152.257812 124.785156 149.898438 127.8125 C 146.363281 132.351562 142.769531 137.261719 139.851562 141.132812 C 138.394531 143.066406 137.105469 144.746094 136.097656 145.964844 C 135.597656 146.574219 135.160156 147.070312 134.832031 147.410156 C 134.671875 147.578125 134.535156 147.707031 134.441406 147.785156 C 134.398438 147.824219 134.363281 147.851562 134.351562 147.859375 L 134.347656 147.863281 L 134.460938 148.035156 L 134.355469 147.859375 L 134.347656 147.863281 L 134.460938 148.035156 L 134.355469 147.859375 L 134.691406 148.417969 L 134.390625 147.839844 L 134.355469 147.859375 L 134.691406 148.417969 L 134.390625 147.839844 C 133.765625 148.164062 133.390625 148.824219 133.421875 149.53125 C 133.457031 150.238281 133.894531 150.859375 134.546875 151.125 C 136.023438 151.730469 137.628906 152.015625 139.210938 152.019531 C 140.980469 152.015625 142.734375 151.664062 144.261719 150.871094 L 143.429688 149.261719 L 142.597656 147.648438 C 141.710938 148.113281 140.484375 148.390625 139.210938 148.386719 C 138.070312 148.390625 136.902344 148.171875 135.914062 147.765625 L 135.230469 149.445312 L 136.070312 151.054688 C 136.335938 150.910156 136.523438 150.769531 136.714844 150.613281 C 137.070312 150.316406 137.410156 149.96875 137.800781 149.542969 C 138.519531 148.75 139.382812 147.691406 140.375 146.417969 C 142.109375 144.195312 144.238281 141.324219 146.535156 138.242188 C 149.980469 133.625 153.808594 128.542969 157.179688 124.566406 C 158.863281 122.582031 160.433594 120.871094 161.746094 119.664062 C 162.398438 119.0625 162.988281 118.582031 163.460938 118.269531 C 163.695312 118.109375 163.902344 117.992188 164.058594 117.917969 C 164.21875 117.84375 164.328125 117.808594 164.363281 117.804688 C 165.324219 117.609375 166.191406 117.527344 166.964844 117.527344 C 168.332031 117.53125 169.421875 117.777344 170.316406 118.132812 C 171.652344 118.667969 172.558594 119.464844 173.140625 120.125 C 173.429688 120.453125 173.632812 120.746094 173.757812 120.945312 C 173.816406 121.042969 173.859375 121.121094 173.882812 121.164062 L 173.902344 121.203125 L 174.957031 120.6875 L 173.898438 121.1875 L 173.902344 121.203125 L 174.957031 120.6875 L 173.898438 121.1875 L 175.535156 120.414062 L 173.816406 119.84375 C 173.796875 119.902344 173.6875 120.238281 173.582031 120.777344 C 173.472656 121.316406 173.367188 122.058594 173.367188 122.921875 C 173.367188 123.621094 173.4375 124.402344 173.644531 125.21875 C 173.800781 125.835938 174.035156 126.46875 174.378906 127.089844 C 174.890625 128.023438 175.65625 128.917969 176.695312 129.640625 C 177.730469 130.363281 179.023438 130.910156 180.585938 131.238281 C 181.132812 131.355469 181.703125 131.207031 182.128906 130.84375 C 182.558594 130.476562 182.789062 129.9375 182.765625 129.375 L 182.269531 118.734375 C 182.238281 118.109375 181.898438 117.550781 181.355469 117.242188 C 180.28125 116.628906 179.382812 115.742188 178.753906 114.679688 C 178.121094 113.617188 177.761719 112.386719 177.761719 111.054688 C 177.761719 109.085938 178.554688 107.320312 179.839844 106.027344 C 181.128906 104.738281 182.890625 103.945312 184.851562 103.945312 C 186.8125 103.945312 188.574219 104.738281 189.863281 106.027344 C 191.152344 107.320312 191.941406 109.085938 191.941406 111.054688 C 191.941406 112.386719 191.582031 113.617188 190.949219 114.679688 C 190.320312 115.742188 189.421875 116.628906 188.347656 117.242188 C 187.804688 117.550781 187.464844 118.109375 187.433594 118.734375 L 186.945312 129.183594 C 186.917969 129.761719 187.175781 130.328125 187.632812 130.691406 C 188.085938 131.050781 188.691406 131.171875 189.25 131.011719 C 190.46875 130.664062 191.5 130.167969 192.351562 129.550781 C 192.988281 129.089844 193.519531 128.558594 193.949219 127.996094 C 194.589844 127.152344 194.996094 126.242188 195.234375 125.371094 C 195.472656 124.5 195.550781 123.664062 195.550781 122.921875 C 195.550781 122.058594 195.445312 121.320312 195.335938 120.78125 C 195.230469 120.242188 195.121094 119.902344 195.105469 119.84375 L 193.386719 120.414062 L 195.023438 121.1875 L 194.152344 120.777344 L 195.015625 121.203125 L 195.023438 121.1875 L 194.152344 120.777344 L 195.015625 121.203125 L 195.019531 121.195312 C 195.070312 121.09375 195.589844 120.140625 196.679688 119.261719 C 197.226562 118.820312 197.910156 118.390625 198.769531 118.070312 C 199.628906 117.75 200.667969 117.53125 201.953125 117.53125 C 202.726562 117.53125 203.589844 117.613281 204.554688 117.804688 C 204.613281 117.8125 204.882812 117.90625 205.238281 118.128906 C 205.578125 118.335938 206 118.644531 206.46875 119.042969 C 207.351562 119.785156 208.40625 120.828125 209.546875 122.074219 C 211.554688 124.257812 213.839844 127.0625 216.167969 130.050781 C 219.660156 134.53125 223.242188 139.421875 226.179688 143.324219 C 227.648438 145.273438 228.957031 146.976562 230.035156 148.28125 C 230.574219 148.933594 231.050781 149.484375 231.484375 149.933594 C 231.703125 150.160156 231.910156 150.359375 232.121094 150.542969 C 232.335938 150.726562 232.546875 150.890625 232.851562 151.054688 L 233.691406 149.445312 L 233.007812 147.765625 C 232.015625 148.171875 230.847656 148.390625 229.707031 148.390625 C 228.433594 148.390625 227.207031 148.113281 226.320312 147.648438 C 226.199219 147.585938 226.003906 147.46875 225.773438 147.300781 C 225.339844 146.996094 224.777344 146.527344 224.144531 145.953125 C 223.039062 144.945312 221.722656 143.617188 220.371094 142.171875 C 218.34375 140 216.222656 137.5625 214.511719 135.507812 C 213.65625 134.480469 212.902344 133.550781 212.3125 132.800781 C 212.019531 132.425781 211.769531 132.097656 211.566406 131.828125 C 211.371094 131.558594 211.222656 131.34375 211.148438 131.234375 C 210.683594 130.511719 210.066406 129.964844 209.402344 129.609375 C 208.738281 129.253906 208.03125 129.078125 207.332031 129.078125 C 206.984375 129.078125 206.636719 129.121094 206.292969 129.21875 C 206.035156 129.292969 205.777344 129.398438 205.527344 129.546875 C 205.15625 129.765625 204.796875 130.089844 204.539062 130.515625 C 204.277344 130.941406 204.132812 131.464844 204.136719 131.964844 C 204.136719 132.332031 204.207031 132.6875 204.320312 133.015625 C 204.433594 133.34375 204.59375 133.648438 204.78125 133.941406 L 204.78125 133.9375 C 204.863281 134.0625 204.945312 134.175781 205.035156 134.292969 C 205.210938 134.515625 205.417969 134.761719 205.660156 135.042969 C 206.117188 135.566406 206.707031 136.210938 207.402344 136.949219 C 209.824219 139.519531 213.503906 143.226562 216.589844 146.304688 C 219.671875 149.375 222.152344 151.8125 222.15625 151.816406 L 223.421875 150.515625 L 223.410156 148.703125 L 223.390625 148.703125 C 223.375 148.703125 223.351562 148.703125 223.320312 148.703125 C 222.914062 148.703125 221.105469 148.6875 219.203125 148.457031 C 218.25 148.347656 217.273438 148.179688 216.472656 147.953125 C 216.070312 147.84375 215.710938 147.71875 215.429688 147.59375 C 215.144531 147.46875 214.9375 147.335938 214.835938 147.25 C 214.144531 146.679688 213.179688 145.796875 212.125 144.792969 C 210.546875 143.277344 208.753906 141.476562 207.226562 139.914062 C 206.464844 139.132812 205.769531 138.410156 205.199219 137.808594 C 204.628906 137.214844 204.183594 136.738281 203.929688 136.460938 C 203.589844 136.09375 203.21875 135.789062 202.800781 135.566406 C 202.382812 135.339844 201.902344 135.191406 201.378906 135.191406 C 201.058594 135.1875 200.722656 135.25 200.40625 135.378906 C 199.933594 135.570312 199.519531 135.929688 199.257812 136.359375 C 198.992188 136.785156 198.878906 137.265625 198.878906 137.722656 C 198.878906 138.167969 198.984375 138.589844 199.160156 138.972656 C 199.335938 139.355469 199.585938 139.703125 199.886719 140.007812 C 201.078125 141.222656 210.921875 151.253906 210.921875 151.253906 L 212.210938 149.984375 L 212.210938 148.167969 L 212.210938 148.667969 L 212.210938 148.167969 L 212.210938 148.667969 L 212.210938 148.167969 C 212.1875 148.167969 210.859375 148.160156 209.378906 147.902344 C 208.644531 147.773438 207.871094 147.585938 207.234375 147.335938 C 206.917969 147.210938 206.632812 147.070312 206.40625 146.929688 C 206.175781 146.789062 206.003906 146.648438 205.890625 146.519531 C 205.367188 145.953125 204.574219 145.113281 203.625 144.082031 C 202.203125 142.539062 200.4375 140.566406 198.773438 138.507812 C 197.109375 136.453125 195.554688 134.300781 194.582031 132.484375 C 194.265625 131.890625 193.640625 131.523438 192.972656 131.527344 C 192.300781 131.535156 191.6875 131.914062 191.378906 132.511719 C 191.304688 132.65625 191.1875 132.816406 191.003906 132.988281 C 190.726562 133.25 190.300781 133.527344 189.773438 133.773438 C 189.242188 134.019531 188.617188 134.234375 187.964844 134.410156 C 187.203125 134.613281 186.664062 135.289062 186.625 136.078125 L 185.441406 161.46875 C 185.417969 162.015625 185.636719 162.542969 186.042969 162.90625 C 186.449219 163.269531 186.996094 163.433594 187.53125 163.347656 C 189.785156 162.992188 192.066406 162.8125 194.128906 162.621094 C 195.160156 162.523438 196.136719 162.425781 197.042969 162.285156 C 197.949219 162.148438 198.78125 161.976562 199.558594 161.707031 C 200.96875 161.207031 202.148438 160.492188 203.0625 159.652344 C 203.523438 159.230469 203.914062 158.773438 204.230469 158.28125 C 204.542969 157.789062 204.785156 157.257812 204.910156 156.671875 C 204.96875 156.402344 204.964844 156.125 204.898438 155.855469 C 204.800781 155.453125 204.617188 155.050781 204.355469 154.703125 C 204.101562 154.355469 203.773438 154.0625 203.414062 153.835938 L 203.410156 153.832031 C 203.046875 153.605469 202.695312 153.496094 202.382812 153.433594 C 202.066406 153.371094 201.777344 153.351562 201.503906 153.351562 C 201.265625 153.351562 201.042969 153.367188 200.824219 153.390625 C 200.316406 153.441406 199.859375 153.703125 199.554688 154.117188 C 199.300781 154.464844 198.894531 154.804688 198.367188 155.050781 C 197.839844 155.296875 197.199219 155.453125 196.496094 155.453125 C 195.433594 155.457031 194.503906 155.101562 193.90625 154.625 C 193.605469 154.386719 193.386719 154.125 193.253906 153.871094 C 193.117188 153.613281 193.054688 153.367188 193.054688 153.105469 C 193.054688 153.058594 193.058594 152.996094 193.066406 152.921875 C 193.085938 152.773438 193.085938 152.636719 193.066406 152.484375 C 193.058594 152.414062 193.054688 152.351562 193.054688 152.304688 C 193.054688 152.039062 193.117188 151.796875 193.253906 151.539062 C 193.453125 151.160156 193.847656 150.753906 194.414062 150.453125 C 194.972656 150.152344 195.699219 149.957031 196.496094 149.957031 C 196.636719 149.957031 196.828125 149.976562 197.085938 150.007812 C 197.558594 150.066406 198.042969 149.933594 198.417969 149.640625 L 198.429688 149.632812 L 197.320312 148.195312 L 197.148438 150.003906 C 197.210938 150.007812 199.242188 150.222656 201.410156 150.835938 C 202.492188 151.140625 203.605469 151.546875 204.496094 152.03125 C 204.941406 152.277344 205.332031 152.535156 205.636719 152.796875 C 205.941406 153.058594 206.160156 153.316406 206.300781 153.554688 L 206.300781 153.550781 C 206.605469 154.074219 206.773438 154.710938 206.773438 155.46875 C 206.773438 155.566406 206.773438 155.667969 206.765625 155.773438 C 206.761719 155.847656 206.761719 155.910156 206.765625 155.984375 C 206.769531 156.082031 206.773438 156.179688 206.773438 156.273438 C 206.773438 156.894531 206.65625 157.585938 206.414062 158.296875 C 206.054688 159.363281 205.410156 160.460938 204.542969 161.421875 C 203.679688 162.382812 202.59375 163.203125 201.355469 163.757812 C 200.488281 164.148438 199.398438 164.4375 198.164062 164.640625 C 196.929688 164.84375 195.558594 164.964844 194.132812 165.0625 C 193.445312 165.109375 192.847656 165.542969 192.582031 166.179688 C 192.320312 166.816406 192.4375 167.542969 192.886719 168.066406 C 193.011719 168.203125 193.085938 168.285156 193.109375 168.320312 L 193.113281 168.320312 C 193.460938 168.757812 193.753906 169.328125 193.949219 169.992188 C 194.148438 170.65625 194.25 171.414062 194.25 172.1875 C 194.25 173.210938 194.070312 174.261719 193.742188 175.171875 C 193.417969 176.085938 192.945312 176.847656 192.433594 177.34375 C 192.011719 177.753906 191.8125 178.335938 191.902344 178.917969 C 191.988281 179.5 192.347656 180 192.871094 180.265625 C 193.457031 180.5625 193.984375 180.882812 194.429688 181.21875 C 194.878906 181.558594 195.246094 181.910156 195.523438 182.265625 C 196.046875 182.933594 196.480469 183.734375 196.777344 184.597656 C 197.078125 185.453125 197.238281 186.367188 197.238281 187.25 C 197.238281 187.363281 197.234375 187.472656 197.230469 187.582031 L 197.230469 187.738281 C 197.234375 187.847656 197.238281 187.953125 197.238281 188.054688 C 197.234375 189.15625 196.992188 190.191406 196.484375 191.085938 C 196.230469 191.53125 195.910156 191.945312 195.507812 192.328125 C 195.101562 192.707031 194.613281 193.054688 194.011719 193.355469 C 193.199219 193.761719 192.183594 194.132812 191.046875 194.488281 C 190.382812 194.699219 189.894531 195.269531 189.796875 195.960938 C 189.695312 196.65625 190.003906 197.34375 190.582031 197.730469 C 192.089844 198.742188 193.355469 199.921875 194.347656 201.417969 C 195.335938 202.917969 196.066406 204.753906 196.414062 207.175781 L 196.417969 207.226562 C 196.417969 207.257812 196.414062 207.265625 196.40625 207.28125 C 196.402344 207.296875 196.375 207.332031 196.332031 207.359375 L 196.277344 207.382812 L 196.265625 207.386719 L 196.269531 207.421875 L 196.269531 207.386719 L 196.265625 207.386719 L 196.269531 207.421875 L 196.269531 207.386719 L 196.269531 207.621094 L 196.351562 207.40625 C 196.3125 207.390625 196.28125 207.386719 196.269531 207.386719 L 196.269531 207.621094 L 196.351562 207.40625 L 196.253906 207.660156 L 196.484375 207.5 C 196.480469 207.488281 196.410156 207.421875 196.351562 207.40625 L 196.253906 207.660156 L 196.484375 207.5 C 196.476562 207.492188 196.433594 207.414062 196.40625 207.210938 C 196.203125 205.671875 195.785156 204.292969 195.1875 203.078125 C 194.292969 201.25 193 199.8125 191.535156 198.707031 C 190.070312 197.59375 188.4375 196.789062 186.78125 196.140625 C 186.398438 195.992188 185.972656 195.976562 185.582031 196.101562 C 185.386719 196.164062 185.1875 196.226562 184.984375 196.292969 C 184.273438 196.527344 183.777344 197.179688 183.742188 197.929688 L 183.042969 212.929688 L 184.851562 213.015625 L 186.660156 212.929688 L 185.980469 198.417969 C 185.953125 197.835938 185.65625 197.304688 185.171875 196.984375 C 184.683594 196.664062 184.082031 196.597656 183.539062 196.800781 C 182.402344 197.230469 181.269531 197.726562 180.191406 198.339844 C 178.578125 199.261719 177.0625 200.449219 175.878906 202.050781 C 174.6875 203.648438 173.855469 205.644531 173.546875 208.015625 C 173.527344 208.167969 173.496094 208.25 173.480469 208.28125 L 173.46875 208.300781 L 173.535156 208.34375 L 173.476562 208.292969 L 173.46875 208.300781 L 173.535156 208.34375 L 173.476562 208.292969 L 173.707031 208.488281 L 173.585938 208.214844 C 173.539062 208.234375 173.488281 208.273438 173.476562 208.292969 L 173.707031 208.488281 L 173.585938 208.214844 L 173.683594 208.4375 L 173.683594 208.191406 C 173.671875 208.191406 173.632812 208.195312 173.585938 208.214844 L 173.683594 208.4375 L 173.683594 208.191406 L 173.683594 208.246094 L 173.6875 208.191406 L 173.683594 208.191406 L 173.683594 208.246094 L 173.6875 208.191406 L 173.675781 208.1875 C 173.648438 208.183594 173.585938 208.144531 173.5625 208.113281 L 173.542969 208.074219 C 173.539062 208.066406 173.535156 208.054688 173.535156 208.027344 L 173.539062 207.980469 L 172.703125 207.859375 L 173.535156 208.003906 L 173.539062 207.980469 L 172.703125 207.859375 L 173.535156 208.003906 L 173.378906 207.976562 L 173.535156 208.003906 L 173.378906 207.976562 L 173.535156 208.003906 C 173.535156 208.003906 173.542969 207.960938 173.554688 207.878906 C 173.585938 207.667969 173.582031 207.464844 173.539062 207.253906 L 173.535156 207.214844 L 173.539062 207.179688 C 173.917969 204.550781 174.742188 202.609375 175.863281 201.042969 C 176.984375 199.480469 178.433594 198.269531 180.152344 197.234375 C 180.769531 196.863281 181.105469 196.164062 181.015625 195.449219 C 180.925781 194.730469 180.425781 194.140625 179.734375 193.9375 C 178.265625 193.503906 176.945312 193.054688 175.941406 192.550781 C 175.339844 192.25 174.847656 191.902344 174.445312 191.523438 C 173.839844 190.953125 173.417969 190.304688 173.136719 189.585938 C 172.851562 188.867188 172.714844 188.074219 172.714844 187.25 C 172.714844 186.371094 172.875 185.457031 173.175781 184.597656 C 173.472656 183.738281 173.90625 182.933594 174.429688 182.265625 C 174.910156 181.644531 175.679688 181.035156 176.648438 180.496094 C 177.117188 180.234375 177.445312 179.785156 177.546875 179.257812 C 177.648438 178.726562 177.515625 178.1875 177.179688 177.769531 C 176.746094 177.230469 176.363281 176.496094 176.105469 175.660156 C 175.84375 174.828125 175.703125 173.898438 175.703125 172.996094 C 175.703125 172.882812 175.707031 172.773438 175.710938 172.660156 L 175.710938 172.523438 C 175.707031 172.414062 175.703125 172.300781 175.703125 172.191406 C 175.703125 171.414062 175.804688 170.65625 176.003906 169.992188 C 176.199219 169.324219 176.488281 168.757812 176.84375 168.320312 C 177.089844 168.011719 177.363281 167.71875 177.667969 167.421875 C 178.183594 166.925781 178.355469 166.164062 178.109375 165.492188 C 177.863281 164.820312 177.242188 164.351562 176.527344 164.304688 C 174.964844 164.207031 173.453125 164.089844 172.097656 163.882812 C 170.738281 163.679688 169.535156 163.375 168.597656 162.953125 C 166.945312 162.21875 165.566406 160.996094 164.617188 159.617188 C 164.140625 158.925781 163.777344 158.203125 163.535156 157.492188 C 163.292969 156.78125 163.175781 156.089844 163.175781 155.46875 C 163.175781 154.714844 163.34375 154.078125 163.652344 153.550781 L 163.652344 153.554688 C 163.792969 153.3125 164.015625 153.050781 164.332031 152.785156 C 164.875 152.316406 165.691406 151.863281 166.605469 151.492188 C 167.980469 150.929688 169.558594 150.542969 170.773438 150.3125 C 171.382812 150.199219 171.898438 150.117188 172.257812 150.070312 C 172.441406 150.046875 172.582031 150.027344 172.675781 150.019531 C 172.722656 150.011719 172.757812 150.007812 172.777344 150.007812 L 172.800781 150.003906 L 172.804688 150.003906 L 172.753906 149.464844 L 172.804688 150.003906 L 172.753906 149.464844 L 172.804688 150.003906 L 172.628906 148.195312 L 171.554688 149.65625 L 171.566406 149.667969 C 171.941406 149.941406 172.40625 150.066406 172.867188 150.007812 C 173.125 149.976562 173.316406 149.957031 173.460938 149.957031 C 174.519531 149.953125 175.449219 150.308594 176.046875 150.785156 C 176.347656 151.023438 176.566406 151.285156 176.699219 151.539062 C 176.835938 151.796875 176.898438 152.039062 176.898438 152.304688 C 176.898438 152.566406 176.835938 152.808594 176.699219 153.066406 C 176.496094 153.449219 176.105469 153.851562 175.539062 154.152344 C 174.976562 154.457031 174.253906 154.652344 173.460938 154.652344 C 172.753906 154.652344 172.109375 154.496094 171.585938 154.25 C 171.058594 154.003906 170.652344 153.660156 170.398438 153.3125 C 170.09375 152.902344 169.640625 152.640625 169.132812 152.585938 C 168.914062 152.5625 168.683594 152.546875 168.445312 152.546875 C 168.167969 152.550781 167.882812 152.566406 167.5625 152.632812 C 167.25 152.695312 166.898438 152.804688 166.535156 153.035156 L 166.539062 153.03125 C 166.0625 153.332031 165.640625 153.753906 165.363281 154.261719 C 165.082031 154.769531 164.953125 155.339844 164.953125 155.875 C 164.957031 156.570312 165.148438 157.207031 165.4375 157.78125 C 165.875 158.644531 166.535156 159.398438 167.371094 160.0625 C 168.207031 160.726562 169.222656 161.292969 170.398438 161.707031 C 171.15625 161.972656 171.972656 162.140625 172.863281 162.277344 C 174.191406 162.480469 175.679688 162.609375 177.261719 162.753906 C 178.84375 162.894531 180.515625 163.054688 182.179688 163.308594 C 182.714844 163.390625 183.257812 163.226562 183.660156 162.863281 C 184.066406 162.5 184.28125 161.972656 184.257812 161.429688 L 183.085938 136.273438 C 183.046875 135.457031 182.464844 134.761719 181.671875 134.585938 C 180.664062 134.363281 179.664062 134.046875 178.914062 133.660156 C 178.535156 133.46875 178.222656 133.257812 177.996094 133.0625 C 177.765625 132.859375 177.625 132.675781 177.539062 132.511719 C 177.230469 131.914062 176.617188 131.535156 175.945312 131.527344 C 175.277344 131.523438 174.65625 131.890625 174.335938 132.484375 C 173.6875 133.691406 172.78125 135.058594 171.753906 136.4375 C 170.214844 138.507812 168.417969 140.617188 166.8125 142.40625 C 166.011719 143.304688 165.257812 144.121094 164.613281 144.820312 C 163.964844 145.515625 163.421875 146.09375 163.03125 146.519531 C 162.914062 146.648438 162.738281 146.792969 162.503906 146.9375 C 162.09375 147.1875 161.511719 147.425781 160.871094 147.605469 C 159.914062 147.875 158.84375 148.023438 158.035156 148.09375 C 157.628906 148.132812 157.289062 148.148438 157.054688 148.160156 C 156.933594 148.164062 156.84375 148.164062 156.785156 148.167969 C 156.753906 148.167969 156.734375 148.167969 156.71875 148.167969 L 156.707031 148.167969 L 156.707031 148.285156 L 156.707031 148.167969 L 156.707031 148.285156 L 156.707031 148.167969 L 156.707031 149.984375 L 158 151.253906 C 158 151.253906 160.460938 148.746094 163.070312 146.085938 C 165.679688 143.425781 168.4375 140.617188 169.035156 140.007812 C 169.335938 139.703125 169.582031 139.355469 169.757812 138.972656 C 169.9375 138.589844 170.039062 138.164062 170.039062 137.722656 C 170.039062 137.417969 169.992188 137.105469 169.878906 136.800781 C 169.710938 136.34375 169.390625 135.914062 168.960938 135.621094 C 168.535156 135.328125 168.019531 135.1875 167.539062 135.1875 C 167.015625 135.191406 166.539062 135.339844 166.117188 135.5625 C 165.699219 135.789062 165.328125 136.09375 164.992188 136.460938 L 164.988281 136.464844 C 164.652344 136.832031 163.972656 137.550781 163.109375 138.449219 C 161.8125 139.796875 160.09375 141.554688 158.425781 143.203125 C 157.589844 144.023438 156.769531 144.820312 156.023438 145.519531 C 155.277344 146.21875 154.601562 146.820312 154.082031 147.25 C 153.980469 147.335938 153.773438 147.464844 153.492188 147.589844 C 152.996094 147.8125 152.273438 148.023438 151.484375 148.183594 C 150.296875 148.421875 148.949219 148.554688 147.84375 148.625 C 146.738281 148.695312 145.867188 148.703125 145.601562 148.703125 C 145.566406 148.703125 145.542969 148.703125 145.527344 148.703125 L 145.511719 148.703125 L 145.496094 150.515625 L 146.761719 151.816406 C 146.765625 151.8125 150.695312 147.957031 154.808594 143.824219 C 156.863281 141.757812 158.964844 139.621094 160.652344 137.855469 C 161.5 136.972656 162.238281 136.183594 162.824219 135.53125 C 163.117188 135.207031 163.371094 134.917969 163.585938 134.660156 C 163.695312 134.53125 163.792969 134.410156 163.882812 134.292969 C 163.972656 134.175781 164.054688 134.0625 164.136719 133.941406 L 164.136719 133.9375 C 164.328125 133.648438 164.484375 133.34375 164.597656 133.015625 C 164.710938 132.6875 164.78125 132.332031 164.78125 131.964844 C 164.78125 131.519531 164.671875 131.058594 164.460938 130.664062 C 164.304688 130.363281 164.097656 130.109375 163.871094 129.902344 C 163.523438 129.589844 163.136719 129.386719 162.753906 129.257812 C 162.367188 129.132812 161.976562 129.078125 161.585938 129.078125 C 160.886719 129.078125 160.179688 129.253906 159.515625 129.609375 C 158.851562 129.964844 158.234375 130.511719 157.769531 131.234375 C 157.710938 131.324219 157.601562 131.484375 157.457031 131.683594 C 157.183594 132.058594 156.78125 132.578125 156.292969 133.191406 C 154.582031 135.351562 151.773438 138.679688 149.050781 141.628906 C 147.691406 143.101562 146.351562 144.480469 145.195312 145.566406 C 144.617188 146.105469 144.085938 146.570312 143.632812 146.933594 C 143.183594 147.292969 142.800781 147.546875 142.597656 147.648438 L 143.429688 149.261719 " fill-opacity="1" fill-rule="nonzero"/></g><path fill="#85d2ff" d="M 162.097656 152.625 C 164.230469 149.011719 172.628906 148.195312 172.628906 148.195312 L 172.644531 148.207031 C 172.910156 148.171875 173.179688 148.140625 173.460938 148.140625 C 176.355469 148.140625 178.707031 150.003906 178.707031 152.304688 C 178.707031 154.601562 176.355469 156.464844 173.460938 156.464844 C 171.523438 156.464844 169.855469 155.628906 168.941406 154.390625 C 168.386719 154.335938 167.84375 154.351562 167.503906 154.570312 C 165.699219 155.707031 167.324219 158.699219 170.996094 159.992188 C 175.691406 161.648438 188.714844 159.949219 194.519531 167.183594 C 196.960938 170.21875 196.371094 176.082031 193.667969 178.671875 C 188.664062 183.464844 179.976562 181.191406 177.265625 183.496094 C 173.734375 186.5 175.738281 189.277344 178.027344 190.285156 C 186.300781 193.90625 196.535156 195.269531 198.207031 206.917969 C 198.539062 209.246094 195 210.378906 194.613281 207.449219 C 193.226562 197 181.207031 197.210938 175.132812 194.175781 C 169.71875 191.472656 170.074219 184.894531 173.003906 181.144531 C 175.933594 177.394531 183.832031 176.273438 186.792969 175.65625 C 190.328125 174.921875 192.332031 172.085938 188.664062 168.9375 C 184.070312 165 173.625 167.191406 167.859375 164.613281 C 162.695312 162.300781 159.960938 156.242188 162.097656 152.625 " fill-opacity="1" fill-rule="nonzero"/><path fill="#85d2ff" d="M 193.75 111.054688 C 193.75 115.984375 189.765625 119.984375 184.851562 119.984375 C 179.9375 119.984375 175.953125 115.984375 175.953125 111.054688 C 175.953125 106.128906 179.9375 102.132812 184.851562 102.132812 C 189.765625 102.132812 193.75 106.128906 193.75 111.054688 " fill-opacity="1" fill-rule="nonzero"/><path fill="#85d2ff" d="M 184.851562 213.015625 L 180.222656 113.734375 L 189.480469 113.734375 Z M 184.851562 213.015625 " fill-opacity="1" fill-rule="nonzero"/><path fill="#85d2ff" d="M 175.535156 120.414062 C 175.535156 120.414062 172.652344 114.289062 164.003906 116.023438 C 158.042969 117.222656 138.253906 147.859375 135.230469 149.445312 C 137.84375 150.515625 141.144531 150.449219 143.429688 149.261719 C 147.070312 147.371094 157.867188 134.429688 159.289062 132.21875 C 160.714844 130.007812 164.050781 130.773438 162.625 132.941406 C 161.199219 135.105469 145.496094 150.515625 145.496094 150.515625 C 145.496094 150.515625 152.882812 150.589844 155.230469 148.652344 C 158.257812 146.15625 164.898438 139.242188 166.320312 137.691406 C 167.746094 136.144531 168.9375 137.519531 167.746094 138.734375 C 166.554688 139.949219 156.707031 149.984375 156.707031 149.984375 C 156.707031 149.984375 162.316406 149.980469 164.363281 147.75 C 166.382812 145.542969 173.082031 138.644531 175.929688 133.34375 C 177.710938 136.800781 186.121094 136.957031 186.121094 136.957031 C 186.121094 136.957031 193.019531 130.511719 182.871094 129.730469 C 172.726562 128.945312 175.535156 120.414062 175.535156 120.414062 " fill-opacity="1" fill-rule="nonzero"/><path fill="#85d2ff" d="M 193.386719 120.414062 C 193.386719 120.414062 196.269531 114.289062 204.914062 116.027344 C 210.875 117.222656 230.664062 147.859375 233.691406 149.445312 C 231.074219 150.515625 227.773438 150.449219 225.488281 149.261719 C 221.851562 147.371094 211.050781 134.429688 209.628906 132.21875 C 208.207031 130.007812 204.871094 130.773438 206.292969 132.941406 C 207.714844 135.105469 223.421875 150.515625 223.421875 150.515625 C 223.421875 150.515625 216.035156 150.589844 213.6875 148.652344 C 210.660156 146.15625 204.023438 139.242188 202.597656 137.691406 C 201.175781 136.148438 199.984375 137.523438 201.175781 138.734375 C 202.367188 139.949219 212.210938 149.984375 212.210938 149.984375 C 212.210938 149.984375 206.601562 149.984375 204.558594 147.75 C 202.535156 145.546875 195.835938 138.644531 192.988281 133.34375 C 191.207031 136.800781 182.800781 136.957031 182.800781 136.957031 C 182.800781 136.957031 175.902344 130.515625 186.046875 129.730469 C 196.191406 128.945312 193.386719 120.414062 193.386719 120.414062 " fill-opacity="1" fill-rule="nonzero"/><path fill="#ffffff" d="M 207.855469 152.625 C 205.71875 149.011719 197.320312 148.195312 197.320312 148.195312 L 197.308594 148.207031 C 197.042969 148.171875 196.773438 148.140625 196.496094 148.140625 C 193.597656 148.140625 191.246094 150.003906 191.246094 152.304688 C 191.246094 154.601562 193.597656 156.464844 196.496094 156.464844 C 198.429688 156.464844 200.101562 155.628906 201.011719 154.390625 C 201.566406 154.335938 202.109375 154.351562 202.449219 154.570312 C 204.253906 155.707031 202.628906 158.699219 198.957031 159.992188 C 194.261719 161.648438 181.242188 159.949219 175.433594 167.183594 C 172.992188 170.21875 173.582031 176.082031 176.285156 178.671875 C 181.292969 183.464844 189.976562 181.191406 192.6875 183.496094 C 196.21875 186.5 194.21875 189.277344 191.925781 190.285156 C 183.652344 193.90625 173.414062 195.269531 171.746094 206.917969 C 171.414062 209.246094 174.949219 210.378906 175.339844 207.449219 C 176.726562 197 188.746094 197.210938 194.820312 194.175781 C 200.234375 191.472656 199.878906 184.894531 196.949219 181.144531 C 194.019531 177.394531 186.125 176.273438 183.164062 175.65625 C 179.625 174.921875 177.621094 172.085938 181.292969 168.9375 C 185.882812 165 196.328125 167.191406 202.09375 164.613281 C 207.253906 162.300781 209.992188 156.242188 207.855469 152.625 " fill-opacity="1" fill-rule="nonzero"/><path fill="#85d2ff" d="M 207.855469 153.429688 C 205.71875 149.816406 197.320312 149 197.320312 149 L 197.308594 149.007812 C 197.042969 148.976562 196.773438 148.945312 196.496094 148.945312 C 193.597656 148.945312 191.246094 150.808594 191.246094 153.105469 C 191.246094 155.40625 193.597656 157.269531 196.496094 157.269531 C 198.429688 157.269531 200.101562 156.429688 201.011719 155.195312 C 201.566406 155.136719 202.109375 155.15625 202.449219 155.371094 C 204.253906 156.511719 202.628906 159.5 198.957031 160.796875 C 194.261719 162.453125 181.242188 160.753906 175.433594 167.984375 C 172.992188 171.023438 173.582031 176.882812 176.285156 179.476562 C 181.292969 184.269531 189.976562 181.992188 192.6875 184.300781 C 196.21875 187.304688 194.21875 190.082031 191.925781 191.085938 C 183.652344 194.710938 173.414062 196.074219 171.746094 207.722656 C 171.414062 210.046875 174.949219 211.179688 175.339844 208.253906 C 176.726562 197.804688 188.746094 198.015625 194.820312 194.980469 C 200.234375 192.273438 199.878906 185.699219 196.949219 181.949219 C 194.019531 178.199219 186.125 177.074219 183.164062 176.460938 C 179.625 175.722656 177.621094 172.886719 181.292969 169.742188 C 185.882812 165.804688 196.328125 167.996094 202.09375 165.417969 C 207.253906 163.105469 209.992188 157.046875 207.855469 153.429688 " fill-opacity="1" fill-rule="nonzero"/><g fill="#3182b2" fill-opacity="1"><g transform="translate(131.422284, 251.712903)"><g><path d="M 20.765625 0 L 19.34375 -5.390625 L 10 -5.390625 L 8.546875 0 L 0 0 L 9.390625 -28.890625 L 19.765625 -28.890625 L 29.265625 0 Z M 17.734375 -11.765625 L 16.5 -16.5 C 16.207031 -17.539062 15.851562 -18.894531 15.4375 -20.5625 C 15.03125 -22.226562 14.757812 -23.425781 14.625 -24.15625 C 14.507812 -23.476562 14.273438 -22.375 13.921875 -20.84375 C 13.578125 -19.3125 12.804688 -16.285156 11.609375 -11.765625 Z M 17.734375 -11.765625 "/></g></g></g><g fill="#3182b2" fill-opacity="1"><g transform="translate(166.176546, 251.712903)"><g><path d="M 3.109375 0 L 3.109375 -28.78125 L 10.921875 -28.78125 L 10.921875 0 Z M 3.109375 0 "/></g></g></g><g fill="#3182b2" fill-opacity="1"><g transform="translate(185.695519, 251.712903)"><g><path d="M 27.53125 -15 C 27.53125 -10.195312 26.207031 -6.492188 23.5625 -3.890625 C 20.925781 -1.296875 17.210938 0 12.421875 0 L 3.109375 0 L 3.109375 -28.78125 L 13.0625 -28.78125 C 17.6875 -28.78125 21.253906 -27.597656 23.765625 -25.234375 C 26.273438 -22.867188 27.53125 -19.457031 27.53125 -15 Z M 19.46875 -14.71875 C 19.46875 -17.363281 18.945312 -19.320312 17.90625 -20.59375 C 16.863281 -21.863281 15.28125 -22.5 13.15625 -22.5 L 10.890625 -22.5 L 10.890625 -6.375 L 12.625 -6.375 C 14.976562 -6.375 16.707031 -7.054688 17.8125 -8.421875 C 18.914062 -9.796875 19.46875 -11.894531 19.46875 -14.71875 Z M 19.46875 -14.71875 "/></g></g></g><g fill="#3182b2" fill-opacity="1"><g transform="translate(220.764724, 251.712903)"><g><path d="M 8.734375 -11.578125 L 1.421875 -11.578125 L 1.421875 -16.84375 L 8.734375 -16.84375 L 8.734375 -24.078125 L 14.03125 -24.078125 L 14.03125 -16.84375 L 21.359375 -16.84375 L 21.359375 -11.578125 L 14.03125 -11.578125 L 14.03125 -4.46875 L 8.734375 -4.46875 Z M 8.734375 -11.578125 "/></g></g></g><g fill="#85d2ff" fill-opacity="1"><g transform="translate(106.76014, 269.501526)"><g><path d="M 6.417969 -6.484375 L 1.984375 -11.421875 L 1.257812 -11.421875 L 1.257812 0 L 3.539062 0 L 3.539062 -6.277344 L 6.417969 -3.257812 L 9.300781 -6.277344 L 9.285156 0 L 11.566406 0 L 11.566406 -11.421875 L 10.855469 -11.421875 Z M 6.417969 -6.484375 "/></g></g></g><g fill="#85d2ff" fill-opacity="1"><g transform="translate(122.536117, 269.501526)"><g><path d="M 7.082031 0 L 7.082031 -2.25 L 3.507812 -2.25 L 3.507812 -4.5 L 6.46875 -4.5 L 6.46875 -6.75 L 3.507812 -6.75 L 3.507812 -9 L 6.890625 -9 L 6.890625 -11.25 L 1.257812 -11.25 L 1.257812 0 Z M 7.082031 0 "/></g></g></g><g fill="#85d2ff" fill-opacity="1"><g transform="translate(133.405417, 269.501526)"><g><path d="M 4.609375 -11.25 L 1.257812 -11.25 L 1.257812 0 L 4.609375 0 C 12.101562 0 12.101562 -11.25 4.609375 -11.25 Z M 4.609375 -9 C 8.984375 -9 8.984375 -2.25 4.609375 -2.25 L 3.507812 -2.25 L 3.507812 -9 Z M 4.609375 -9 "/></g></g></g><g fill="#85d2ff" fill-opacity="1"><g transform="translate(147.420023, 269.501526)"><g><path d="M 3.507812 0 L 3.507812 -11.25 L 1.257812 -11.25 L 1.257812 0 Z M 3.507812 0 "/></g></g></g><g fill="#85d2ff" fill-opacity="1"><g transform="translate(155.144029, 269.501526)"><g><path d="M 8.417969 -8.636719 L 8.6875 -10.953125 C 8.007812 -11.25 7.253906 -11.390625 6.46875 -11.390625 C -1.148438 -11.390625 -1.164062 0.03125 6.46875 0.03125 C 7.253906 0.03125 8.246094 -0.15625 8.9375 -0.441406 L 8.636719 -2.769531 C 8.214844 -2.550781 7.441406 -2.265625 6.46875 -2.265625 C 2.015625 -2.265625 2.015625 -9.125 6.46875 -9.125 C 7.441406 -9.125 7.992188 -8.859375 8.417969 -8.636719 Z M 8.417969 -8.636719 "/></g></g></g><g fill="#85d2ff" fill-opacity="1"><g transform="translate(167.554528, 269.501526)"><g><path d="M 0.25 0 L 2.800781 0 L 3.242188 -1.210938 L 6.96875 -1.210938 L 7.425781 0 L 9.960938 0 L 5.222656 -11.660156 L 4.988281 -11.660156 Z M 4.058594 -3.320312 L 5.113281 -6.246094 L 6.136719 -3.320312 Z M 4.058594 -3.320312 "/></g></g></g><g fill="#85d2ff" fill-opacity="1"><g transform="translate(180.767085, 269.501526)"><g><path d="M 1.257812 -11.25 L 1.257812 0 L 7.082031 0 L 7.082031 -2.25 L 3.507812 -2.25 L 3.507812 -11.25 Z M 1.257812 -11.25 "/></g></g></g><g fill="#85d2ff" fill-opacity="1"><g transform="translate(191.463397, 269.501526)"><g/></g></g><g fill="#85d2ff" fill-opacity="1"><g transform="translate(198.872873, 269.501526)"><g><path d="M 8.417969 -8.636719 L 8.6875 -10.953125 C 8.007812 -11.25 7.253906 -11.390625 6.46875 -11.390625 C -1.148438 -11.390625 -1.164062 0.03125 6.46875 0.03125 C 7.253906 0.03125 8.246094 -0.15625 8.9375 -0.441406 L 8.636719 -2.769531 C 8.214844 -2.550781 7.441406 -2.265625 6.46875 -2.265625 C 2.015625 -2.265625 2.015625 -9.125 6.46875 -9.125 C 7.441406 -9.125 7.992188 -8.859375 8.417969 -8.636719 Z M 8.417969 -8.636719 "/></g></g></g><g fill="#85d2ff" fill-opacity="1"><g transform="translate(211.283372, 269.501526)"><g><path d="M 7.082031 0 L 7.082031 -2.25 L 3.507812 -2.25 L 3.507812 -4.5 L 6.46875 -4.5 L 6.46875 -6.75 L 3.507812 -6.75 L 3.507812 -9 L 6.890625 -9 L 6.890625 -11.25 L 1.257812 -11.25 L 1.257812 0 Z M 7.082031 0 "/></g></g></g><g fill="#85d2ff" fill-opacity="1"><g transform="translate(222.152672, 269.501526)"><g><path d="M 3.507812 -6.121094 L 9.203125 0.234375 L 9.804688 0.234375 L 9.804688 -11.234375 L 7.535156 -11.234375 L 7.535156 -4.878906 L 1.855469 -11.488281 L 1.257812 -11.488281 L 1.257812 0 L 3.507812 0 Z M 3.507812 -6.121094 "/></g></g></g><g fill="#85d2ff" fill-opacity="1"><g transform="translate(236.167278, 269.501526)"><g><path d="M 5.367188 0 L 5.367188 -9 L 8.167969 -9 L 8.167969 -11.234375 L 0.316406 -11.234375 L 0.316406 -9 L 3.117188 -9 L 3.117188 0 Z M 5.367188 0 "/></g></g></g><g fill="#85d2ff" fill-opacity="1"><g transform="translate(247.712821, 269.501526)"><g><path d="M 6.859375 0 L 9.410156 0 L 6.796875 -4.640625 C 10.101562 -5.601562 9.707031 -11.25 5.695312 -11.25 L 1.257812 -11.25 L 1.257812 0 L 3.507812 0 L 3.507812 -4.296875 L 4.59375 -4.296875 Z M 3.507812 -6.484375 L 3.507812 -9 L 5.492188 -9 C 7.019531 -9 7.019531 -6.484375 5.492188 -6.484375 Z M 3.507812 -6.484375 "/></g></g></g><g fill="#85d2ff" fill-opacity="1"><g transform="translate(260.29632, 269.501526)"><g><path d="M 7.082031 0 L 7.082031 -2.25 L 3.507812 -2.25 L 3.507812 -4.5 L 6.46875 -4.5 L 6.46875 -6.75 L 3.507812 -6.75 L 3.507812 -9 L 6.890625 -9 L 6.890625 -11.25 L 1.257812 -11.25 L 1.257812 0 Z M 7.082031 0 "/></g></g></g></svg>