<svg xmlns="http://www.w3.org/2000/svg" xmlns:xlink="http://www.w3.org/1999/xlink" width="500" zoomAndPan="magnify" viewBox="0 0 375 374.999991" height="500" preserveAspectRatio="xMidYMid meet" version="1.0"><defs><clipPath id="2a5cdfa1ed"><path d="M 34 12 L 349 12 L 349 362.835938 L 34 362.835938 Z M 34 12 " clip-rule="nonzero"/></clipPath><clipPath id="c564679ed6"><path d="M 26 11.835938 L 332 11.835938 L 332 354 L 26 354 Z M 26 11.835938 " clip-rule="nonzero"/></clipPath></defs><g clip-path="url(#2a5cdfa1ed)"><path fill="#d8e9f0" d="M 78.875 136.515625 C 89.035156 122.9375 100.558594 107.554688 110.945312 95.082031 C 126.117188 76.863281 131.453125 73.902344 132.566406 73.441406 C 134.914062 72.984375 137.171875 72.753906 139.265625 72.753906 C 147.472656 72.753906 152.085938 76.339844 154.320312 78.867188 C 153.574219 83.933594 153.441406 91.890625 157.726562 99.316406 C 158.921875 101.390625 160.648438 103.714844 163.125 105.917969 C 160.691406 106.679688 158.601562 108.363281 157.355469 110.679688 C 155.585938 113.960938 153.230469 117.515625 150.574219 121.121094 C 148.359375 118.171875 144.832031 116.375 140.984375 116.375 C 139.222656 116.375 137.476562 116.746094 135.800781 117.460938 C 137.757812 113.332031 137.753906 108.96875 135.722656 105.203125 C 133.34375 100.789062 128.652344 98.152344 123.167969 98.152344 C 117.078125 98.152344 111.390625 101.328125 107.949219 106.648438 C 103.644531 113.3125 78.078125 143.066406 67.265625 151.910156 C 70.476562 147.703125 74.289062 142.640625 78.875 136.515625 Z M 168.496094 130.183594 C 169.75 130.800781 171.089844 131.371094 172.511719 131.898438 L 173.53125 153.695312 C 169.34375 151.097656 164.222656 149.570312 158.699219 149.570312 C 157.644531 149.570312 156.707031 149.648438 155.835938 149.746094 C 155.648438 149.75 155.457031 149.765625 155.261719 149.78125 C 154.632812 149.84375 153.6875 149.945312 152.492188 150.105469 C 157.820312 144.074219 163.640625 137.085938 168.496094 130.183594 Z M 158.699219 174.386719 C 155.980469 174.386719 153.964844 173.300781 153.171875 172.230469 C 152.65625 171.535156 152.058594 170.917969 151.398438 170.386719 C 153.132812 170.054688 154.859375 169.785156 156.515625 169.601562 C 156.839844 169.59375 157.164062 169.570312 157.484375 169.527344 C 157.859375 169.484375 158.433594 169.414062 158.699219 169.414062 C 162.539062 169.414062 164.480469 171.476562 164.480469 171.894531 C 164.480469 172.320312 162.539062 174.386719 158.699219 174.386719 Z M 185.5 251.175781 C 187.96875 251.699219 190.527344 251.265625 192.664062 249.996094 C 194.816406 251.367188 197.433594 251.867188 199.96875 251.355469 L 200.617188 251.222656 C 203.992188 250.523438 207.035156 249.378906 209.660156 247.863281 C 209.3125 249.164062 209.226562 250.535156 209.429688 251.902344 C 209.574219 252.835938 209.84375 253.734375 210.230469 254.574219 C 207.039062 254.015625 203.644531 253.730469 200.171875 253.4375 L 197.867188 253.238281 C 197.574219 253.214844 197.285156 253.203125 196.992188 253.203125 C 195.902344 253.203125 194.824219 253.378906 193.804688 253.726562 C 192.699219 253.035156 191.441406 252.554688 190.085938 252.34375 C 188.582031 252.109375 187.238281 251.851562 185.976562 251.554688 C 184.9375 251.3125 183.863281 251.238281 182.796875 251.335938 C 180.359375 251.566406 177.890625 251.832031 175.488281 252.285156 C 175.722656 250.152344 175.257812 248.011719 174.175781 246.171875 C 177.242188 248.496094 181.089844 250.230469 185.5 251.175781 Z M 176.855469 209.65625 C 176.660156 209.132812 176.429688 208.632812 176.15625 208.160156 C 178.785156 208.433594 181.441406 208.753906 184.117188 209.164062 C 187.054688 209.609375 190.046875 208.71875 192.257812 206.726562 C 192.421875 206.578125 192.582031 206.421875 192.734375 206.265625 C 192.929688 206.472656 193.132812 206.671875 193.347656 206.863281 C 194.246094 207.667969 195.269531 208.289062 196.367188 208.71875 C 195.539062 208.953125 194.738281 209.296875 193.980469 209.753906 C 192.914062 210.394531 191.992188 211.21875 191.253906 212.171875 C 188.417969 210.679688 185.023438 210.640625 182.148438 212.089844 C 180.386719 212.976562 178.75 213.980469 177.261719 215.085938 C 177.625 213.3125 177.507812 211.433594 176.855469 209.65625 Z M 192.792969 32.261719 C 202.007812 32.261719 209.503906 39.742188 209.503906 48.945312 C 209.503906 54.929688 206.257812 60.492188 201.027344 63.460938 C 198.070312 65.144531 196.175781 68.226562 196.015625 71.621094 L 194.5625 102.761719 C 194.414062 105.957031 195.808594 109.019531 198.3125 111.003906 C 200.027344 112.359375 202.117188 113.097656 204.25 113.144531 C 203.347656 113.496094 202.257812 113.851562 200.945312 114.203125 C 196.773438 115.324219 193.800781 119.007812 193.597656 123.324219 L 192.792969 140.46875 L 192.019531 123.902344 C 191.808594 119.433594 188.628906 115.652344 184.257812 114.679688 C 182.851562 114.371094 181.648438 114.039062 180.617188 113.714844 C 183.128906 113.851562 185.628906 113.019531 187.574219 111.363281 C 189.917969 109.371094 191.199219 106.414062 191.058594 103.34375 L 189.574219 71.621094 C 189.414062 68.222656 187.523438 65.144531 184.5625 63.460938 C 179.335938 60.492188 176.09375 54.929688 176.09375 48.945312 C 176.09375 39.742188 183.582031 32.261719 192.792969 32.261719 Z M 213.125 130.941406 C 213.679688 130.699219 214.222656 130.445312 214.753906 130.1875 C 219.507812 136.945312 225.1875 143.789062 230.429688 149.738281 C 229.578125 149.640625 228.664062 149.570312 227.640625 149.570312 C 221.773438 149.570312 216.359375 151.292969 212.035156 154.195312 Z M 225.980469 98.488281 C 229.792969 91.304688 229.644531 83.746094 228.925781 78.871094 C 231.15625 76.339844 235.769531 72.753906 243.972656 72.753906 C 246.070312 72.753906 248.324219 72.984375 250.679688 73.445312 C 251.789062 73.902344 257.125 76.863281 272.292969 95.074219 C 282.6875 107.546875 294.203125 122.933594 304.367188 136.503906 C 308.949219 142.628906 312.765625 147.699219 315.976562 151.90625 C 305.160156 143.054688 279.597656 113.308594 275.292969 106.644531 C 271.855469 101.328125 266.164062 98.152344 260.078125 98.152344 C 254.59375 98.152344 249.902344 100.789062 247.523438 105.203125 C 245.492188 108.972656 245.488281 113.332031 247.445312 117.460938 C 245.769531 116.75 244.023438 116.375 242.265625 116.375 C 238.421875 116.375 234.902344 118.167969 232.679688 121.113281 C 230.007812 117.488281 227.644531 113.929688 225.890625 110.679688 C 224.644531 108.367188 222.5625 106.675781 220.136719 105.902344 C 222.921875 103.425781 224.765625 100.777344 225.980469 98.488281 Z M 233.171875 174.621094 C 232.378906 175.695312 230.359375 176.777344 227.640625 176.777344 C 223.800781 176.777344 221.859375 174.710938 221.867188 174.292969 C 221.960938 173.496094 221.957031 172.691406 221.859375 171.894531 C 221.859375 171.476562 223.800781 169.414062 227.640625 169.414062 C 227.910156 169.414062 228.476562 169.484375 228.855469 169.527344 C 229.183594 169.570312 229.511719 169.59375 229.84375 169.601562 C 232.476562 169.890625 235.328125 170.40625 238.113281 171.074219 C 236.152344 171.707031 234.417969 172.9375 233.171875 174.621094 Z M 211.773438 211.527344 C 211.398438 212.425781 211.164062 213.359375 211.0625 214.296875 C 210.929688 214.179688 210.792969 214.0625 210.65625 213.945312 C 208.542969 212.140625 206.152344 210.617188 203.34375 209.292969 C 203.179688 209.214844 203.015625 209.140625 202.851562 209.074219 C 206.800781 208.492188 210.722656 208.089844 214.566406 207.730469 C 213.363281 208.734375 212.398438 210.027344 211.773438 211.527344 Z M 209.992188 276.019531 C 208.765625 276.554688 207.519531 277.074219 206.257812 277.582031 L 206.421875 274.046875 C 208 274.292969 209.292969 274.582031 209.933594 274.933594 C 210.226562 275.191406 210.484375 275.429688 210.710938 275.652344 C 210.492188 275.78125 210.253906 275.910156 209.992188 276.019531 Z M 176.355469 276.023438 C 175.4375 275.621094 174.765625 275.078125 174.433594 274.699219 C 174.695312 274.257812 175.285156 273.503906 176.40625 272.535156 C 176.785156 272.328125 177.550781 272.070312 179.058594 271.800781 L 179.316406 277.273438 C 178.316406 276.863281 177.332031 276.449219 176.355469 276.023438 Z M 40.53125 172.566406 C 45.328125 174.523438 50.746094 175.558594 56.203125 175.558594 C 60.417969 175.558594 64.476562 174.949219 68.1875 173.777344 C 69.972656 175.460938 72.355469 176.464844 74.914062 176.492188 L 75.320312 176.492188 C 82.425781 176.492188 93.777344 175.933594 102.542969 172.863281 C 104.238281 174.15625 106.34375 174.902344 108.574219 174.902344 C 109.425781 174.902344 111.132812 174.871094 113.355469 174.695312 C 112.082031 179.910156 112.359375 185.695312 114.226562 191.558594 C 117.84375 202.902344 126.691406 212.65625 137.898438 217.648438 C 142 219.476562 146.511719 220.632812 151.28125 221.414062 C 150.390625 224.835938 149.980469 228.53125 150.089844 232.375 C 149.929688 237.875 150.875 243.378906 152.738281 248.28125 C 151.542969 249.390625 150.472656 250.550781 149.527344 251.753906 C 142.441406 260.78125 139.546875 273.082031 141.976562 283.847656 C 143.917969 292.453125 149.109375 299.578125 156.714844 304.183594 C 149.691406 312.082031 145.414062 321.714844 143.75 333.292969 C 143.582031 334.453125 143.542969 335.625 143.628906 336.78125 C 143.320312 340.984375 144.671875 345.136719 147.429688 348.3125 C 150.46875 351.816406 154.820312 353.824219 159.375 353.824219 C 167 353.824219 173.089844 348.136719 174.175781 339.996094 C 174.960938 334.09375 177.261719 329.558594 181.585938 325.839844 L 182.875 353.335938 C 183.121094 358.628906 187.488281 362.792969 192.792969 362.792969 C 198.097656 362.792969 202.46875 358.628906 202.714844 353.335938 L 204.136719 322.921875 C 208.863281 326.71875 211.339844 331.394531 212.164062 337.597656 C 213.25 345.742188 219.339844 351.429688 226.96875 351.429688 C 231.519531 351.429688 235.875 349.417969 238.914062 345.917969 C 241.910156 342.460938 243.25 337.859375 242.589844 333.292969 C 241.027344 322.429688 237.195312 313.308594 230.96875 305.726562 C 240.324219 299.433594 245.554688 289.125 245.191406 277.324219 C 245.503906 268.246094 242.464844 258.949219 236.816406 251.753906 C 235.695312 250.324219 234.394531 248.960938 232.925781 247.664062 C 236.179688 240.320312 237.113281 231.617188 235.578125 223.722656 C 240.054688 222.957031 244.460938 221.820312 248.449219 220.046875 C 263.792969 213.203125 274.339844 197.511719 273.730469 182.550781 C 273.835938 179.898438 273.589844 177.316406 273.015625 174.871094 C 273.726562 174.894531 274.289062 174.902344 274.675781 174.902344 L 274.695312 174.902344 C 276.957031 174.902344 279.042969 174.144531 280.714844 172.871094 C 289.480469 175.9375 300.828125 176.496094 307.925781 176.496094 L 308.328125 176.492188 C 310.886719 176.46875 313.269531 175.464844 315.054688 173.777344 C 318.765625 174.949219 322.828125 175.558594 327.039062 175.558594 C 332.496094 175.558594 337.917969 174.523438 342.71875 172.566406 C 346.296875 171.101562 348.703125 167.699219 348.882812 163.847656 C 349.050781 160.214844 347.222656 156.796875 344.148438 154.917969 C 340.835938 152.09375 329.449219 136.882812 320.269531 124.621094 C 284.570312 76.9375 267.578125 56.59375 254.789062 54.03125 C 251.078125 53.289062 247.441406 52.910156 243.972656 52.910156 C 238.160156 52.910156 233.09375 53.960938 228.742188 55.628906 C 229.152344 53.445312 229.363281 51.207031 229.363281 48.945312 C 229.363281 28.804688 212.957031 12.421875 192.792969 12.421875 C 172.632812 12.421875 156.230469 28.804688 156.230469 48.945312 C 156.230469 51.585938 156.519531 54.191406 157.074219 56.714844 C 152.1875 54.429688 146.265625 52.910156 139.265625 52.910156 C 135.800781 52.910156 132.164062 53.285156 128.453125 54.027344 C 115.660156 56.59375 98.671875 76.941406 62.96875 124.632812 C 53.792969 136.890625 42.40625 152.097656 39.097656 154.921875 C 36.023438 156.800781 34.195312 160.21875 34.367188 163.847656 C 34.550781 167.703125 36.953125 171.101562 40.53125 172.566406 " fill-opacity="1" fill-rule="nonzero"/></g><path fill="#85d2ff" d="M 157.292969 259.769531 C 160.101562 257.390625 165.042969 256.648438 170.921875 256.101562 C 172.523438 256.476562 174.140625 256.777344 175.753906 257.03125 L 177.148438 286.816406 C 171.238281 284.59375 165.257812 282.476562 159.578125 280 C 152.722656 277.003906 146.726562 268.726562 157.292969 259.769531 Z M 186.300781 213.144531 C 188.179688 214.03125 189.90625 215.085938 191.40625 216.371094 C 202.390625 225.75 196.398438 234.203125 185.808594 236.394531 C 185.617188 236.433594 185.414062 236.476562 185.207031 236.519531 Z M 203.457031 262.164062 C 207.054688 265.214844 208.730469 268.183594 209.109375 270.890625 C 208.527344 275.035156 204.984375 278.335938 201.171875 280 C 195.25 282.582031 189 284.777344 182.839844 287.105469 L 184.199219 258.007812 C 192.492188 258.742188 199.792969 259.066406 203.457031 262.164062 Z M 174.785156 236.359375 C 168.785156 235.074219 164.300781 231.769531 163.601562 227.429688 C 164.011719 224.761719 165.777344 221.8125 169.347656 218.765625 C 170.683594 217.621094 172.1875 216.660156 173.824219 215.832031 Z M 56.035156 157.714844 C 66.925781 152.078125 99.238281 113.507812 103.496094 106.917969 C 107.761719 100.324219 117.746094 102.613281 113.480469 109.066406 C 109.21875 115.519531 62.214844 161.460938 62.214844 161.460938 C 62.214844 161.460938 84.320312 161.675781 91.351562 155.902344 C 100.417969 148.457031 120.28125 127.851562 124.539062 123.234375 C 128.804688 118.625 132.367188 122.71875 128.804688 126.34375 C 125.238281 129.960938 95.773438 159.867188 95.773438 159.867188 C 95.773438 159.867188 112.558594 159.867188 118.679688 153.214844 C 124.734375 146.636719 144.78125 126.074219 153.304688 110.269531 C 155.808594 115.117188 162.707031 117.785156 169.308594 119.253906 L 172.816406 194.242188 C 159.027344 192.148438 145.621094 192.195312 138.535156 189.707031 C 127.546875 185.851562 122.683594 176.929688 128.082031 173.539062 C 129.101562 172.898438 130.730469 172.839844 132.390625 173.011719 C 135.117188 176.695312 140.117188 179.195312 145.90625 179.195312 C 154.578125 179.195312 161.617188 173.636719 161.617188 166.785156 C 161.617188 159.933594 154.578125 154.378906 145.90625 154.378906 C 145.070312 154.378906 144.261719 154.472656 143.464844 154.570312 L 143.425781 154.546875 C 143.425781 154.546875 118.292969 156.976562 111.898438 167.75 C 105.507812 178.53125 113.695312 196.589844 129.148438 203.476562 C 136.09375 206.570312 145.3125 207.359375 154.742188 207.964844 C 153.714844 208.960938 152.726562 210.003906 151.8125 211.136719 C 148.441406 215.316406 147.011719 221.285156 147.234375 227.269531 C 146.972656 234.132812 148.972656 241.324219 152.824219 246.09375 C 149.503906 247.941406 146.613281 250.132812 144.550781 252.757812 C 135.777344 263.933594 134.714844 283.542969 150.917969 291.605469 C 154.445312 293.359375 158.644531 294.753906 163.148438 296.082031 C 151.972656 302.777344 143.25 312.441406 140.78125 329.589844 C 140.679688 330.324219 140.707031 331.015625 140.839844 331.660156 C 140.820312 331.773438 140.800781 331.871094 140.78125 331.984375 C 139.789062 338.917969 150.371094 342.292969 151.535156 333.574219 C 153.761719 316.882812 165.117188 309.320312 177.976562 304.5 L 180 347.761719 L 182.09375 303.050781 C 182.667969 302.863281 183.238281 302.683594 183.808594 302.503906 C 196.238281 307.339844 207.050781 314.9375 209.214844 331.175781 C 210.375 339.902344 220.964844 336.527344 219.96875 329.589844 C 217.695312 313.777344 210.09375 304.332031 200.164062 297.703125 C 203.699219 296.601562 206.984375 295.421875 209.832031 294 C 219.246094 289.320312 222.820312 280.75 222.460938 272.195312 C 222.78125 265.242188 220.359375 258.054688 216.207031 252.757812 C 213.84375 249.75 210.398438 247.3125 206.457031 245.3125 C 214.488281 237.550781 216.214844 220.160156 208.941406 211.136719 C 208.6875 210.820312 208.414062 210.527344 208.148438 210.226562 C 216.824219 209.625 225.183594 208.734375 231.609375 205.875 C 243.921875 200.386719 251.617188 187.789062 250.992188 177.441406 C 251.199219 173.933594 250.535156 170.589844 248.851562 167.75 C 242.460938 156.976562 217.324219 154.546875 217.324219 154.546875 L 217.289062 154.570312 C 216.488281 154.472656 215.683594 154.378906 214.847656 154.378906 C 206.171875 154.378906 199.132812 159.933594 199.132812 166.785156 C 199.132812 167.191406 199.164062 167.585938 199.210938 167.980469 C 199.164062 168.375 199.132812 168.773438 199.132812 169.179688 C 199.132812 176.03125 206.171875 181.585938 214.847656 181.585938 C 220.636719 181.585938 225.640625 179.085938 228.363281 175.40625 C 230.027344 175.234375 231.65625 175.296875 232.675781 175.929688 C 233.796875 176.636719 234.46875 177.589844 234.742188 178.675781 C 233.910156 182.554688 229.359375 187.199219 222.21875 189.707031 C 215.003906 192.242188 201.230469 192.148438 187.179688 194.363281 L 190.722656 118.671875 C 196.539062 117.117188 202.144531 114.539062 204.351562 110.269531 C 212.875 126.074219 232.925781 146.640625 238.980469 153.214844 C 245.101562 159.867188 261.882812 159.867188 261.882812 159.867188 C 261.882812 159.867188 232.421875 129.960938 228.859375 126.34375 C 225.292969 122.722656 228.859375 118.628906 233.113281 123.234375 C 237.378906 127.851562 257.242188 148.457031 266.300781 155.90625 C 273.332031 161.675781 295.441406 161.460938 295.441406 161.460938 C 295.441406 161.460938 248.433594 115.519531 244.171875 109.066406 C 239.914062 102.613281 249.898438 100.328125 254.15625 106.917969 C 258.417969 113.507812 290.734375 152.078125 301.621094 157.714844 C 308.464844 161.265625 318.34375 161.460938 326.167969 158.269531 C 317.109375 153.539062 257.886719 62.21875 240.039062 58.648438 C 214.171875 53.464844 205.542969 71.726562 205.542969 71.726562 C 205.542969 71.726562 212.3125 92.246094 191.6875 98.117188 L 193.144531 66.976562 C 201.199219 62.398438 206.636719 53.753906 206.636719 43.832031 C 206.636719 29.140625 194.707031 17.230469 180 17.230469 C 165.296875 17.230469 153.367188 29.140625 153.367188 43.832031 C 153.367188 53.75 158.804688 62.394531 166.859375 66.972656 L 168.34375 98.699219 C 144.839844 93.773438 152.117188 71.722656 152.117188 71.722656 C 152.117188 71.722656 143.488281 53.464844 117.613281 58.644531 C 99.769531 62.21875 40.546875 153.535156 31.492188 158.269531 C 39.308594 161.460938 49.191406 161.261719 56.035156 157.714844 " fill-opacity="1" fill-rule="nonzero"/><g clip-path="url(#c564679ed6)"><path fill="#3182b2" d="M 157.292969 259.769531 L 160.796875 263.894531 C 161.003906 263.71875 161.367188 263.480469 161.9375 263.234375 C 162.792969 262.859375 164.097656 262.488281 165.71875 262.203125 C 167.34375 261.910156 169.285156 261.691406 171.425781 261.488281 L 170.921875 256.101562 L 169.6875 261.371094 C 171.449219 261.78125 173.199219 262.109375 174.914062 262.378906 L 175.753906 257.03125 L 170.34375 257.28125 L 171.738281 287.070312 L 177.148438 286.816406 L 179.050781 281.75 C 173.082031 279.511719 167.183594 277.414062 161.746094 275.042969 L 161.75 275.042969 C 160.355469 274.441406 158.984375 273.449219 158.144531 272.441406 C 157.71875 271.9375 157.421875 271.441406 157.238281 270.992188 C 157.054688 270.535156 156.972656 270.136719 156.972656 269.703125 C 156.980469 269.152344 157.09375 268.492188 157.617188 267.523438 C 158.144531 266.5625 159.121094 265.316406 160.796875 263.894531 L 157.292969 259.769531 L 153.792969 255.640625 C 151.328125 257.730469 149.433594 259.9375 148.125 262.3125 C 146.816406 264.675781 146.132812 267.234375 146.140625 269.703125 C 146.136719 271.621094 146.539062 273.453125 147.207031 275.082031 C 148.214844 277.539062 149.78125 279.550781 151.550781 281.171875 C 153.328125 282.792969 155.324219 284.042969 157.410156 284.957031 L 157.414062 284.957031 C 163.328125 287.539062 169.394531 289.683594 175.242188 291.882812 C 176.957031 292.523438 178.859375 292.265625 180.335938 291.191406 C 181.8125 290.117188 182.644531 288.386719 182.558594 286.5625 L 181.164062 256.777344 C 181.042969 254.21875 179.128906 252.082031 176.589844 251.683594 C 175.085938 251.449219 173.601562 251.171875 172.15625 250.832031 C 171.570312 250.699219 171.019531 250.660156 170.417969 250.710938 C 167.390625 251 164.476562 251.328125 161.703125 251.984375 C 160.3125 252.316406 158.949219 252.730469 157.621094 253.308594 C 156.296875 253.886719 154.988281 254.628906 153.792969 255.640625 Z M 186.300781 213.144531 L 183.984375 218.035156 C 185.527344 218.765625 186.828125 219.578125 187.886719 220.484375 C 189.582031 221.925781 190.613281 223.214844 191.171875 224.191406 C 191.730469 225.183594 191.835938 225.816406 191.839844 226.242188 C 191.832031 226.601562 191.769531 226.878906 191.582031 227.25 C 191.441406 227.527344 191.214844 227.847656 190.867188 228.203125 C 190.355469 228.730469 189.558594 229.320312 188.503906 229.832031 C 187.457031 230.351562 186.164062 230.792969 184.710938 231.097656 C 184.546875 231.132812 184.34375 231.171875 184.132812 231.214844 L 185.207031 236.519531 L 190.617188 236.769531 L 191.710938 213.394531 L 186.300781 213.144531 L 183.984375 218.035156 L 186.300781 213.144531 L 180.890625 212.890625 L 179.796875 236.265625 C 179.71875 237.925781 180.417969 239.546875 181.683594 240.625 C 182.945312 241.707031 184.652344 242.152344 186.285156 241.820312 C 186.480469 241.78125 186.691406 241.738281 186.910156 241.695312 C 188.925781 241.273438 190.84375 240.664062 192.632812 239.855469 C 195.308594 238.632812 197.714844 236.964844 199.578125 234.6875 C 200.507812 233.550781 201.285156 232.253906 201.828125 230.824219 C 202.375 229.390625 202.671875 227.828125 202.671875 226.242188 C 202.675781 223.695312 201.914062 221.148438 200.578125 218.828125 C 199.238281 216.492188 197.347656 214.328125 194.925781 212.257812 C 192.980469 210.597656 190.835938 209.300781 188.617188 208.25 C 186.980469 207.480469 185.0625 207.570312 183.511719 208.503906 C 181.960938 209.4375 180.972656 211.085938 180.890625 212.890625 Z M 203.457031 262.164062 L 199.953125 266.292969 C 201.410156 267.527344 202.339844 268.628906 202.902344 269.527344 C 203.460938 270.429688 203.664062 271.101562 203.742188 271.640625 L 209.109375 270.890625 L 203.742188 270.140625 C 203.691406 270.523438 203.566406 270.917969 203.34375 271.351562 C 203.015625 271.996094 202.441406 272.714844 201.671875 273.378906 C 200.90625 274.039062 199.953125 274.628906 199 275.042969 L 199.003906 275.042969 C 193.332031 277.519531 187.164062 279.691406 180.925781 282.042969 L 182.839844 287.105469 L 188.25 287.355469 L 189.609375 258.261719 L 184.199219 258.007812 L 183.722656 263.398438 C 187.929688 263.769531 191.746094 264.035156 194.664062 264.53125 C 196.117188 264.78125 197.335938 265.078125 198.234375 265.402344 C 199.136719 265.722656 199.6875 266.0625 199.953125 266.292969 L 206.960938 258.035156 C 205.394531 256.714844 203.660156 255.851562 201.902344 255.21875 C 199.261719 254.277344 196.507812 253.8125 193.625 253.457031 C 190.746094 253.109375 187.734375 252.890625 184.675781 252.617188 C 183.214844 252.492188 181.742188 252.972656 180.636719 253.933594 C 179.53125 254.898438 178.859375 256.292969 178.789062 257.757812 L 177.429688 286.851562 C 177.339844 288.675781 178.175781 290.410156 179.65625 291.480469 C 181.136719 292.554688 183.039062 292.8125 184.75 292.167969 C 190.835938 289.871094 197.171875 287.644531 203.335938 284.957031 L 203.339844 284.957031 C 205.882812 283.839844 208.304688 282.226562 210.332031 280.046875 C 211.339844 278.957031 212.25 277.710938 212.976562 276.304688 C 213.699219 274.902344 214.238281 273.332031 214.472656 271.644531 C 214.542969 271.140625 214.542969 270.648438 214.472656 270.144531 C 214.171875 267.972656 213.351562 265.808594 212.082031 263.785156 C 210.808594 261.757812 209.105469 259.855469 206.960938 258.035156 Z M 174.785156 236.359375 L 175.921875 231.070312 C 173.574219 230.574219 171.679688 229.679688 170.539062 228.78125 C 169.964844 228.328125 169.578125 227.890625 169.339844 227.527344 C 169.101562 227.152344 168.996094 226.863281 168.953125 226.574219 L 163.601562 227.429688 L 168.957031 228.246094 C 169.03125 227.777344 169.246094 227.09375 169.839844 226.175781 C 170.429688 225.261719 171.398438 224.125 172.867188 222.875 C 173.816406 222.066406 174.949219 221.328125 176.265625 220.667969 L 173.824219 215.832031 L 168.414062 216.085938 L 169.375 236.609375 L 174.785156 236.359375 L 175.921875 231.070312 L 174.785156 236.359375 L 180.199219 236.105469 L 179.238281 215.582031 C 179.148438 213.757812 178.136719 212.082031 176.558594 211.160156 C 174.976562 210.238281 173.019531 210.179688 171.386719 211.003906 C 169.429688 211.988281 167.546875 213.183594 165.828125 214.648438 C 163.726562 216.449219 162.03125 218.3125 160.742188 220.300781 C 159.457031 222.285156 158.585938 224.410156 158.25 226.609375 C 158.164062 227.160156 158.164062 227.738281 158.253906 228.285156 C 158.550781 230.164062 159.273438 231.917969 160.257812 233.425781 C 161.742188 235.699219 163.773438 237.445312 166.054688 238.785156 C 168.339844 240.121094 170.90625 241.058594 173.652344 241.652344 C 175.296875 242 177.007812 241.574219 178.289062 240.484375 C 179.574219 239.402344 180.273438 237.785156 180.199219 236.105469 Z M 56.035156 157.714844 L 58.53125 162.523438 C 59.523438 162.003906 60.472656 161.398438 61.457031 160.699219 C 63.289062 159.394531 65.238281 157.769531 67.332031 155.875 C 70.988281 152.566406 75.074219 148.433594 79.253906 143.980469 C 85.515625 137.304688 91.960938 129.921875 97.195312 123.660156 C 99.816406 120.53125 102.132812 117.683594 103.976562 115.335938 C 104.902344 114.160156 105.710938 113.113281 106.386719 112.203125 C 107.0625 111.289062 107.601562 110.535156 108.046875 109.851562 L 108.042969 109.855469 C 108.433594 109.257812 108.863281 108.910156 109.289062 108.679688 C 109.707031 108.445312 110.148438 108.367188 110.375 108.371094 L 110.492188 108.378906 L 110.507812 108.382812 L 110.5625 108.121094 L 110.476562 108.371094 L 110.507812 108.382812 L 110.5625 108.121094 L 110.476562 108.371094 L 110.863281 107.203125 L 110.203125 108.234375 C 110.339844 108.324219 110.433594 108.359375 110.476562 108.371094 L 110.863281 107.203125 L 110.203125 108.234375 L 111.46875 106.261719 L 109.453125 107.429688 C 109.691406 107.835938 110 108.109375 110.203125 108.234375 L 111.46875 106.261719 L 109.453125 107.429688 L 111.644531 106.160156 L 109.101562 106.160156 C 109.09375 106.5 109.210938 107.023438 109.453125 107.429688 L 111.644531 106.160156 L 109.101562 106.160156 L 110.367188 106.160156 L 109.15625 105.742188 C 109.152344 105.746094 109.101562 105.898438 109.101562 106.160156 L 110.367188 106.160156 L 109.15625 105.742188 L 109.148438 105.757812 C 109.128906 105.800781 109.074219 105.917969 108.957031 106.089844 L 108.960938 106.085938 C 108.9375 106.121094 108.832031 106.269531 108.675781 106.472656 C 108.367188 106.871094 107.859375 107.480469 107.21875 108.21875 C 106.007812 109.601562 104.308594 111.449219 102.289062 113.578125 C 95.214844 121.066406 84.222656 132.097656 75.03125 141.222656 C 70.429688 145.789062 66.28125 149.882812 63.277344 152.832031 C 61.777344 154.308594 60.5625 155.5 59.726562 156.320312 C 58.890625 157.140625 58.425781 157.589844 58.425781 157.59375 C 56.863281 159.121094 56.371094 161.453125 57.191406 163.484375 C 58.011719 165.511719 59.980469 166.855469 62.171875 166.871094 C 62.1875 166.871094 62.308594 166.871094 62.527344 166.871094 C 64.011719 166.867188 69.742188 166.828125 76.144531 166.070312 C 79.351562 165.683594 82.726562 165.128906 85.914062 164.25 C 87.511719 163.8125 89.066406 163.285156 90.550781 162.625 C 92.039062 161.960938 93.464844 161.164062 94.796875 160.082031 C 97.246094 158.066406 100.242188 155.324219 103.5 152.222656 C 108.378906 147.578125 113.804688 142.140625 118.429688 137.421875 C 120.742188 135.0625 122.851562 132.878906 124.585938 131.066406 C 126.324219 129.253906 127.683594 127.816406 128.523438 126.902344 L 128.519531 126.90625 C 128.691406 126.71875 128.832031 126.597656 128.921875 126.523438 L 129.050781 126.429688 L 128.191406 124.796875 L 128.191406 126.59375 C 128.734375 126.59375 129.023438 126.445312 129.050781 126.429688 L 128.191406 124.796875 L 128.191406 126.59375 L 128.191406 123.410156 L 126.980469 126.34375 C 127.421875 126.527344 127.851562 126.59375 128.191406 126.59375 L 128.191406 123.410156 L 126.980469 126.34375 L 128.316406 123.101562 L 125.332031 124.945312 C 125.6875 125.542969 126.320312 126.085938 126.980469 126.34375 L 128.316406 123.101562 L 125.332031 124.945312 L 127.960938 123.320312 L 124.84375 123.320312 C 124.84375 123.75 124.960938 124.351562 125.332031 124.945312 L 127.960938 123.320312 L 124.84375 123.320312 L 126.75 123.320312 L 125 122.511719 C 124.941406 122.628906 124.847656 122.898438 124.84375 123.320312 L 126.75 123.320312 L 125 122.511719 L 125.675781 122.824219 L 125.03125 122.449219 L 125 122.511719 L 125.675781 122.824219 L 125.03125 122.449219 L 125.027344 122.449219 L 124.9375 122.546875 L 124.941406 122.542969 C 121.378906 126.164062 91.914062 156.070312 91.914062 156.070312 C 90.375 157.632812 89.933594 159.941406 90.777344 161.957031 C 91.625 163.976562 93.585938 165.28125 95.773438 165.28125 C 95.960938 165.277344 100.382812 165.28125 105.828125 164.371094 C 108.554688 163.910156 111.542969 163.226562 114.460938 162.109375 C 115.921875 161.546875 117.367188 160.875 118.757812 160.027344 C 120.144531 159.183594 121.484375 158.160156 122.667969 156.875 C 124.132812 155.285156 126.539062 152.746094 129.425781 149.621094 C 133.761719 144.929688 139.199219 138.894531 144.40625 132.476562 C 149.617188 126.046875 154.597656 119.273438 158.074219 112.839844 L 153.304688 110.269531 L 148.492188 112.753906 C 149.492188 114.6875 150.867188 116.289062 152.386719 117.601562 C 154.667969 119.570312 157.277344 120.960938 159.960938 122.054688 C 162.648438 123.148438 165.4375 123.9375 168.128906 124.535156 L 169.308594 119.253906 L 163.894531 119.507812 L 167.402344 194.496094 L 172.816406 194.242188 L 173.632812 188.894531 C 166.476562 187.808594 159.5625 187.289062 153.671875 186.734375 C 150.726562 186.460938 148.046875 186.175781 145.761719 185.820312 C 143.484375 185.476562 141.597656 185.050781 140.335938 184.601562 C 137.085938 183.46875 134.601562 181.800781 133.09375 180.257812 C 132.339844 179.496094 131.835938 178.769531 131.570312 178.242188 C 131.4375 177.976562 131.359375 177.761719 131.324219 177.621094 L 131.289062 177.46875 L 131.285156 177.433594 L 131.285156 177.429688 L 130.359375 177.429688 L 131.152344 177.867188 C 131.265625 177.671875 131.292969 177.449219 131.285156 177.429688 L 130.359375 177.429688 L 131.152344 177.867188 L 130.242188 177.367188 L 130.988281 178.089844 C 131.03125 178.046875 131.097656 177.960938 131.152344 177.867188 L 130.242188 177.367188 L 130.988281 178.089844 L 130.644531 177.753906 L 130.949219 178.132812 L 130.988281 178.089844 L 130.644531 177.753906 L 130.949219 178.132812 L 130.933594 178.113281 L 130.945312 178.132812 L 130.949219 178.132812 L 130.933594 178.113281 L 130.945312 178.132812 L 130.960938 178.121094 L 130.976562 178.113281 L 129.746094 176.171875 L 130.546875 178.328125 C 130.640625 178.292969 130.789062 178.230469 130.976562 178.113281 L 129.746094 176.171875 L 130.546875 178.328125 L 130.164062 177.304688 L 130.421875 178.367188 L 130.546875 178.328125 L 130.164062 177.304688 L 130.421875 178.367188 L 130.390625 178.242188 L 130.414062 178.371094 L 130.421875 178.367188 L 130.390625 178.242188 L 130.414062 178.371094 C 130.429688 178.363281 130.617188 178.339844 130.898438 178.339844 C 131.148438 178.339844 131.472656 178.355469 131.824219 178.394531 L 132.390625 173.011719 L 128.035156 176.230469 C 129.996094 178.871094 132.644531 180.949219 135.699219 182.382812 C 138.75 183.8125 142.230469 184.601562 145.90625 184.605469 C 151.402344 184.597656 156.476562 182.871094 160.371094 179.804688 C 162.320312 178.265625 163.972656 176.378906 165.15625 174.167969 C 166.34375 171.964844 167.035156 169.425781 167.035156 166.785156 C 167.035156 164.140625 166.34375 161.605469 165.15625 159.402344 C 163.375 156.085938 160.5625 153.5 157.242188 151.722656 C 153.910156 149.953125 150.027344 148.96875 145.90625 148.96875 C 144.660156 148.96875 143.621094 149.101562 142.792969 149.203125 L 143.464844 154.570312 L 146.679688 150.21875 L 146.644531 150.191406 C 145.566406 149.394531 144.238281 149.027344 142.90625 149.160156 C 142.71875 149.179688 136.207031 149.804688 128.617188 151.890625 C 124.820312 152.941406 120.742188 154.355469 116.960938 156.375 C 115.074219 157.386719 113.253906 158.554688 111.589844 159.957031 C 109.929688 161.363281 108.414062 163.011719 107.238281 164.992188 L 107.234375 164.996094 C 105.1875 168.445312 104.292969 172.351562 104.296875 176.226562 C 104.296875 179.429688 104.890625 182.640625 105.960938 185.753906 C 107.5625 190.425781 110.226562 194.902344 113.769531 198.824219 C 117.316406 202.742188 121.753906 206.101562 126.941406 208.417969 C 131.074219 210.253906 135.5625 211.296875 140.199219 212.003906 C 144.839844 212.707031 149.636719 213.0625 154.390625 213.367188 L 154.742188 207.964844 L 150.972656 204.078125 C 149.828125 205.1875 148.683594 206.390625 147.597656 207.742188 C 145.503906 210.335938 144.066406 213.320312 143.136719 216.433594 C 142.214844 219.550781 141.796875 222.8125 141.792969 226.066406 C 141.792969 226.535156 141.800781 227.003906 141.820312 227.472656 L 147.234375 227.269531 L 141.820312 227.058594 C 141.800781 227.527344 141.792969 227.992188 141.792969 228.464844 C 141.796875 232.261719 142.367188 236.0625 143.488281 239.648438 C 144.613281 243.226562 146.28125 246.605469 148.609375 249.492188 L 152.824219 246.09375 L 150.191406 241.367188 C 146.453125 243.449219 142.972656 246.011719 140.285156 249.421875 C 137.941406 252.414062 136.097656 255.839844 134.824219 259.488281 C 133.550781 263.136719 132.84375 267.027344 132.839844 270.960938 C 132.839844 275.84375 133.945312 280.839844 136.511719 285.347656 C 137.796875 287.59375 139.4375 289.707031 141.445312 291.589844 C 143.449219 293.464844 145.8125 295.113281 148.503906 296.449219 C 152.542969 298.453125 157.003906 299.902344 161.613281 301.269531 L 163.148438 296.082031 L 160.363281 291.441406 C 154.328125 295.050781 148.714844 299.625 144.300781 305.757812 C 139.882812 311.878906 136.753906 319.503906 135.421875 328.816406 C 135.34375 329.371094 135.304688 329.925781 135.304688 330.46875 C 135.304688 331.25 135.382812 332.007812 135.53125 332.730469 L 140.839844 331.660156 L 135.484375 330.867188 L 137.769531 331.210938 L 135.488281 330.808594 L 135.484375 330.867188 L 137.769531 331.210938 L 135.488281 330.808594 L 135.488281 330.824219 C 135.480469 330.871094 135.453125 331.003906 135.421875 331.21875 C 135.339844 331.773438 135.304688 332.335938 135.304688 332.894531 C 135.300781 334.542969 135.664062 336.136719 136.300781 337.535156 C 137.261719 339.632812 138.78125 341.273438 140.546875 342.40625 C 142.320312 343.53125 144.371094 344.195312 146.578125 344.203125 C 147.75 344.203125 148.96875 344.003906 150.152344 343.5625 C 151.929688 342.902344 153.597656 341.640625 154.765625 339.984375 C 155.9375 338.335938 156.628906 336.375 156.90625 334.289062 C 157.390625 330.65625 158.34375 327.664062 159.636719 325.101562 C 161.578125 321.261719 164.296875 318.304688 167.738281 315.785156 C 171.175781 313.273438 175.339844 311.261719 179.878906 309.566406 L 177.976562 304.5 L 172.5625 304.75 L 174.589844 348.015625 C 174.722656 350.898438 177.109375 353.171875 180 353.171875 C 182.890625 353.171875 185.277344 350.898438 185.410156 348.015625 L 187.503906 303.304688 L 182.09375 303.050781 L 183.785156 308.191406 C 184.320312 308.015625 184.871094 307.839844 185.441406 307.664062 L 183.808594 302.503906 L 181.84375 307.542969 C 184.75 308.675781 187.492188 309.941406 189.964844 311.402344 C 193.6875 313.59375 196.769531 316.179688 199.113281 319.414062 C 201.453125 322.660156 203.128906 326.589844 203.84375 331.890625 C 204.03125 333.285156 204.394531 334.613281 204.96875 335.84375 C 205.820312 337.683594 207.199219 339.285156 208.871094 340.3125 C 210.539062 341.355469 212.421875 341.8125 214.175781 341.808594 C 215.648438 341.808594 217.050781 341.503906 218.347656 340.980469 C 220.28125 340.183594 222.011719 338.875 223.320312 337.085938 C 223.96875 336.191406 224.503906 335.171875 224.878906 334.054688 C 225.246094 332.945312 225.453125 331.738281 225.449219 330.5 C 225.449219 329.949219 225.410156 329.386719 225.328125 328.820312 C 224.101562 320.226562 221.347656 313.078125 217.453125 307.210938 C 213.566406 301.34375 208.59375 296.816406 203.171875 293.203125 L 200.164062 297.703125 L 201.777344 302.867188 C 205.445312 301.71875 208.984375 300.464844 212.25 298.84375 C 214.941406 297.507812 217.300781 295.863281 219.308594 293.984375 C 222.316406 291.164062 224.503906 287.816406 225.894531 284.277344 C 227.285156 280.738281 227.902344 277.023438 227.902344 273.359375 C 227.902344 272.894531 227.890625 272.429688 227.875 271.972656 L 222.460938 272.195312 L 227.871094 272.441406 C 227.894531 271.945312 227.90625 271.453125 227.902344 270.957031 C 227.902344 267.027344 227.199219 263.140625 225.929688 259.488281 C 224.65625 255.839844 222.8125 252.417969 220.46875 249.421875 C 218.933594 247.46875 217.128906 245.796875 215.171875 244.328125 C 213.214844 242.863281 211.101562 241.601562 208.910156 240.488281 L 206.457031 245.3125 L 210.226562 249.203125 C 213.25 246.265625 215.378906 242.578125 216.8125 238.613281 C 218.238281 234.632812 218.960938 230.347656 218.964844 226.0625 C 218.964844 222.808594 218.539062 219.546875 217.613281 216.433594 C 216.683594 213.316406 215.25 210.335938 213.160156 207.742188 L 213.164062 207.75 C 212.730469 207.210938 212.402344 206.871094 212.238281 206.675781 L 208.148438 210.226562 L 208.519531 215.621094 C 212.921875 215.320312 217.339844 214.9375 221.605469 214.238281 C 225.867188 213.53125 229.992188 212.515625 233.8125 210.816406 C 240.726562 207.726562 246.3125 202.789062 250.222656 197.125 C 252.179688 194.292969 253.71875 191.269531 254.785156 188.152344 C 255.851562 185.035156 256.445312 181.828125 256.445312 178.625 C 256.445312 178.117188 256.429688 177.617188 256.398438 177.125 L 250.992188 177.441406 L 256.398438 177.753906 C 256.429688 177.242188 256.445312 176.730469 256.445312 176.21875 C 256.449219 172.355469 255.5625 168.449219 253.515625 164.996094 L 253.511719 164.992188 C 252.335938 163.011719 250.820312 161.363281 249.160156 159.957031 C 246.246094 157.503906 242.867188 155.746094 239.441406 154.34375 C 234.300781 152.257812 228.992188 151.003906 224.902344 150.222656 C 220.816406 149.449219 217.964844 149.171875 217.84375 149.160156 C 216.464844 149.027344 215.097656 149.421875 214.003906 150.265625 L 213.96875 150.292969 L 217.289062 154.570312 L 217.957031 149.203125 C 217.132812 149.101562 216.09375 148.96875 214.847656 148.96875 C 209.351562 148.976562 204.28125 150.703125 200.378906 153.765625 C 198.433594 155.304688 196.777344 157.195312 195.59375 159.402344 C 194.410156 161.605469 193.714844 164.140625 193.71875 166.785156 C 193.71875 167.441406 193.761719 168.0625 193.835938 168.632812 L 199.210938 167.980469 L 193.835938 167.328125 C 193.761719 167.902344 193.71875 168.519531 193.71875 169.179688 C 193.714844 171.820312 194.410156 174.359375 195.59375 176.558594 C 197.378906 179.878906 200.1875 182.464844 203.511719 184.238281 C 206.84375 186.015625 210.726562 186.996094 214.847656 187 C 218.523438 186.996094 222 186.207031 225.058594 184.777344 C 228.105469 183.34375 230.757812 181.261719 232.71875 178.621094 L 228.363281 175.40625 L 228.914062 180.789062 C 229.265625 180.75 229.589844 180.734375 229.835938 180.734375 C 230.128906 180.730469 230.320312 180.757812 230.339844 180.765625 L 230.40625 180.433594 L 230.320312 180.757812 L 230.339844 180.765625 L 230.40625 180.433594 L 230.320312 180.757812 L 230.839844 178.855469 L 229.804688 180.519531 C 230.082031 180.691406 230.257812 180.742188 230.320312 180.757812 L 230.839844 178.855469 L 229.804688 180.519531 L 229.785156 180.507812 L 229.800781 180.519531 L 230.246094 179.933594 L 229.640625 180.332031 C 229.714844 180.445312 229.796875 180.515625 229.800781 180.519531 L 230.246094 179.933594 L 229.640625 180.332031 L 230.585938 179.707031 L 229.484375 179.980469 C 229.503906 180.078125 229.566406 180.222656 229.640625 180.332031 L 230.585938 179.707031 L 229.484375 179.980469 L 234.742188 178.675781 L 229.445312 177.542969 C 229.40625 177.742188 229.246094 178.191406 228.875 178.761719 C 228.328125 179.621094 227.320312 180.730469 225.890625 181.777344 C 224.457031 182.832031 222.613281 183.832031 220.421875 184.601562 C 219.132812 185.0625 217.199219 185.496094 214.867188 185.84375 C 211.351562 186.375 206.929688 186.753906 202.046875 187.195312 C 197.164062 187.640625 191.8125 188.152344 186.335938 189.015625 L 187.179688 194.363281 L 192.59375 194.613281 L 196.132812 118.925781 L 190.722656 118.671875 L 192.125 123.902344 C 195.332031 123.035156 198.585938 121.890625 201.578125 120.1875 C 203.074219 119.332031 204.503906 118.335938 205.808594 117.121094 C 207.109375 115.902344 208.285156 114.457031 209.167969 112.753906 L 204.351562 110.269531 L 199.585938 112.839844 C 201.902344 117.132812 204.890625 121.5625 208.164062 125.957031 C 213.078125 132.542969 218.652344 139.035156 223.578125 144.515625 C 226.039062 147.257812 228.335938 149.746094 230.300781 151.851562 C 232.261719 153.953125 233.898438 155.6875 234.992188 156.875 C 236.175781 158.160156 237.511719 159.183594 238.898438 160.027344 C 241.332031 161.503906 243.933594 162.472656 246.492188 163.195312 C 250.328125 164.269531 254.085938 164.765625 256.953125 165.023438 C 259.8125 165.277344 261.761719 165.28125 261.882812 165.28125 C 264.074219 165.28125 266.03125 163.976562 266.878906 161.957031 C 267.722656 159.941406 267.277344 157.632812 265.742188 156.070312 C 265.742188 156.070312 265.628906 155.957031 265.414062 155.738281 C 262.160156 152.4375 236.058594 125.941406 232.71875 122.546875 L 232.714844 122.542969 L 232.621094 122.433594 L 231.269531 123.324219 L 232.816406 123.324219 C 232.8125 122.71875 232.625 122.4375 232.621094 122.433594 L 231.269531 123.324219 L 232.816406 123.324219 L 229.839844 123.324219 L 232.621094 124.359375 C 232.765625 123.972656 232.816406 123.613281 232.816406 123.324219 L 229.839844 123.324219 L 232.621094 124.359375 L 229.367188 123.144531 L 231.320312 126 C 231.949219 125.582031 232.410156 124.941406 232.621094 124.359375 L 229.367188 123.144531 L 231.320312 126 L 229.46875 123.292969 L 229.46875 126.597656 C 229.976562 126.601562 230.703125 126.429688 231.320312 126 L 229.46875 123.292969 L 229.46875 126.597656 L 229.46875 124.816406 L 228.605469 126.429688 C 228.628906 126.441406 228.914062 126.59375 229.46875 126.597656 L 229.46875 124.816406 L 228.605469 126.429688 L 228.609375 126.429688 C 228.636719 126.445312 228.835938 126.578125 229.132812 126.90625 C 230.25 128.113281 232.300781 130.273438 234.925781 132.996094 C 238.859375 137.070312 244.054688 142.363281 249.144531 147.371094 C 251.691406 149.871094 254.214844 152.300781 256.546875 154.476562 C 258.882812 156.652344 261.019531 158.570312 262.863281 160.082031 C 264.191406 161.167969 265.621094 161.964844 267.109375 162.628906 C 269.707031 163.78125 272.527344 164.535156 275.398438 165.113281 C 279.699219 165.972656 284.125 166.402344 287.746094 166.625 C 291.363281 166.855469 294.167969 166.871094 295.132812 166.875 C 295.34375 166.871094 295.460938 166.871094 295.472656 166.871094 C 297.664062 166.859375 299.640625 165.519531 300.457031 163.492188 C 301.28125 161.460938 300.792969 159.125 299.226562 157.59375 C 299.226562 157.59375 299.042969 157.417969 298.703125 157.082031 C 296.121094 154.554688 284.445312 143.105469 272.9375 131.554688 C 267.183594 125.78125 261.472656 119.980469 256.976562 115.277344 C 254.730469 112.925781 252.789062 110.847656 251.320312 109.214844 C 250.589844 108.398438 249.976562 107.6875 249.515625 107.136719 C 249.058594 106.589844 248.742188 106.164062 248.699219 106.089844 L 248.695312 106.085938 C 248.621094 105.96875 248.570312 105.882812 248.539062 105.820312 L 248.5 105.742188 L 248.5 105.738281 L 247.265625 106.160156 L 248.554688 106.160156 C 248.554688 105.902344 248.507812 105.75 248.5 105.738281 L 247.265625 106.160156 L 248.554688 106.160156 L 246.023438 106.160156 L 248.25 107.339844 C 248.460938 106.949219 248.5625 106.476562 248.554688 106.160156 L 246.023438 106.160156 L 248.25 107.339844 L 246.023438 106.160156 L 247.71875 108.03125 C 247.894531 107.871094 248.09375 107.632812 248.25 107.339844 L 246.023438 106.160156 L 247.71875 108.03125 L 246.691406 106.898438 L 247.179688 108.371094 C 247.242188 108.351562 247.445312 108.277344 247.71875 108.03125 L 246.691406 106.898438 L 247.179688 108.371094 L 247.0625 108.019531 L 247.144531 108.382812 L 247.179688 108.371094 L 247.0625 108.019531 L 247.144531 108.382812 L 247.148438 108.382812 L 247.28125 108.371094 C 247.507812 108.367188 247.945312 108.445312 248.367188 108.679688 C 248.792969 108.910156 249.21875 109.257812 249.609375 109.855469 L 249.609375 109.851562 C 249.96875 110.410156 250.390625 111.007812 250.902344 111.707031 C 251.859375 113.011719 253.125 114.648438 254.648438 116.5625 C 259.976562 123.246094 268.46875 133.273438 276.847656 142.316406 C 281.042969 146.839844 285.191406 151.105469 288.949219 154.609375 C 290.828125 156.359375 292.609375 157.925781 294.28125 159.253906 C 295.964844 160.582031 297.507812 161.671875 299.128906 162.523438 C 303.707031 164.878906 308.949219 165.929688 314.246094 165.9375 C 318.988281 165.933594 323.789062 165.078125 328.21875 163.277344 C 330.167969 162.480469 331.480469 160.621094 331.578125 158.519531 C 331.679688 156.421875 330.542969 154.449219 328.675781 153.472656 L 327.8125 155.125 L 328.792969 153.539062 L 328.675781 153.472656 L 327.8125 155.125 L 328.792969 153.539062 L 328.421875 154.140625 L 328.8125 153.550781 L 328.792969 153.539062 L 328.421875 154.140625 L 328.8125 153.550781 L 328.808594 153.546875 C 328.769531 153.519531 328.550781 153.351562 328.257812 153.085938 C 327.679688 152.554688 326.804688 151.648438 325.769531 150.476562 C 323.820312 148.273438 321.273438 145.121094 318.34375 141.347656 C 313.207031 134.742188 306.863281 126.207031 300.03125 117.101562 C 289.78125 103.429688 278.441406 88.472656 268.238281 76.53125 C 263.128906 70.558594 258.3125 65.335938 253.929688 61.339844 C 251.730469 59.332031 249.648438 57.632812 247.589844 56.269531 C 246.5625 55.589844 245.535156 54.992188 244.476562 54.488281 C 243.414062 53.992188 242.316406 53.585938 241.105469 53.339844 C 237.566406 52.628906 234.257812 52.308594 231.179688 52.308594 C 225.757812 52.304688 221.0625 53.316406 217.144531 54.882812 C 211.25 57.230469 207.167969 60.769531 204.570312 63.722656 C 201.96875 66.6875 200.804688 69.082031 200.644531 69.417969 C 200.050781 70.671875 199.964844 72.109375 200.398438 73.421875 L 202.605469 72.695312 L 200.390625 73.394531 L 200.398438 73.421875 L 202.605469 72.695312 L 200.390625 73.394531 C 200.40625 73.425781 201.199219 76.058594 201.1875 79.207031 C 201.191406 80.484375 201.0625 81.839844 200.753906 83.152344 C 200.519531 84.136719 200.183594 85.09375 199.726562 86 C 199.027344 87.367188 198.078125 88.625 196.605469 89.804688 C 195.136719 90.976562 193.109375 92.082031 190.203125 92.914062 L 191.6875 98.117188 L 197.097656 98.367188 L 198.550781 67.226562 L 193.144531 66.976562 L 195.820312 71.679688 C 200.667969 68.921875 204.714844 64.957031 207.566406 60.175781 C 210.414062 55.394531 212.054688 49.785156 212.054688 43.832031 C 212.058594 35.007812 208.457031 26.96875 202.664062 21.191406 C 196.882812 15.40625 188.832031 11.8125 180 11.816406 C 171.171875 11.8125 163.121094 15.40625 157.339844 21.191406 C 151.550781 26.96875 147.949219 35.007812 147.953125 43.832031 C 147.949219 49.785156 149.589844 55.394531 152.4375 60.171875 C 155.285156 64.953125 159.335938 68.917969 164.179688 71.675781 L 166.859375 66.972656 L 161.449219 67.226562 L 162.933594 98.949219 L 168.34375 98.699219 L 169.457031 93.398438 C 166.347656 92.75 164.074219 91.792969 162.382812 90.742188 C 161.113281 89.949219 160.164062 89.105469 159.40625 88.21875 C 158.277344 86.890625 157.566406 85.449219 157.101562 83.90625 C 156.648438 82.367188 156.46875 80.730469 156.46875 79.203125 C 156.46875 77.527344 156.683594 75.988281 156.898438 74.921875 C 157.003906 74.386719 157.105469 73.96875 157.175781 73.707031 C 157.210938 73.574219 157.242188 73.480469 157.253906 73.433594 L 157.269531 73.390625 L 155.070312 72.695312 L 157.257812 73.417969 L 157.269531 73.390625 L 155.070312 72.695312 L 157.257812 73.417969 C 157.691406 72.105469 157.605469 70.667969 157.015625 69.417969 C 156.796875 68.972656 154.808594 64.84375 149.984375 60.636719 C 147.570312 58.542969 144.4375 56.441406 140.511719 54.882812 C 136.59375 53.316406 131.894531 52.300781 126.472656 52.304688 C 123.398438 52.304688 120.089844 52.628906 116.550781 53.339844 C 114.488281 53.765625 112.738281 54.621094 110.976562 55.683594 C 109.332031 56.691406 107.691406 57.921875 105.988281 59.351562 C 102.804688 62.027344 99.398438 65.417969 95.773438 69.347656 C 89.433594 76.226562 82.457031 84.757812 75.394531 93.785156 C 64.808594 107.316406 54.054688 121.949219 45.328125 133.488281 C 40.964844 139.257812 37.105469 144.253906 34.089844 147.890625 C 32.589844 149.707031 31.289062 151.183594 30.308594 152.195312 C 29.820312 152.699219 29.410156 153.085938 29.136719 153.320312 C 29.003906 153.433594 28.902344 153.511719 28.863281 153.539062 L 28.847656 153.550781 L 29.195312 154.066406 L 28.871094 153.535156 L 28.847656 153.550781 L 29.195312 154.066406 L 28.871094 153.535156 L 29.882812 155.203125 L 28.980469 153.476562 L 28.871094 153.535156 L 29.882812 155.203125 L 28.980469 153.476562 C 27.117188 154.449219 25.984375 156.421875 26.082031 158.523438 C 26.179688 160.625 27.492188 162.480469 29.445312 163.277344 C 33.871094 165.078125 38.667969 165.933594 43.40625 165.933594 C 48.703125 165.929688 53.949219 164.878906 58.527344 162.523438 L 58.53125 162.523438 L 56.035156 157.714844 L 53.546875 152.910156 C 50.894531 154.296875 47.21875 155.125 43.40625 155.113281 C 40 155.121094 36.496094 154.472656 33.542969 153.261719 L 31.492188 158.269531 L 34.003906 163.0625 C 34.800781 162.636719 35.367188 162.207031 35.933594 161.75 C 37.003906 160.863281 38.023438 159.828125 39.183594 158.558594 C 41.339844 156.191406 43.914062 153.039062 46.890625 149.246094 C 52.078125 142.617188 58.453125 134.058594 65.328125 124.875 C 75.640625 111.113281 87.097656 95.957031 97.1875 84.105469 C 102.222656 78.1875 106.925781 73.089844 110.851562 69.492188 C 112.804688 67.695312 114.566406 66.269531 115.980469 65.328125 C 116.6875 64.859375 117.300781 64.511719 117.777344 64.285156 C 118.25 64.0625 118.578125 63.964844 118.679688 63.949219 C 121.5625 63.371094 124.152344 63.128906 126.472656 63.128906 C 130.5625 63.132812 133.824219 63.871094 136.5 64.933594 C 140.492188 66.523438 143.210938 68.894531 144.949219 70.863281 C 145.816406 71.847656 146.421875 72.722656 146.796875 73.3125 C 146.980469 73.605469 147.105469 73.832031 147.171875 73.957031 L 147.234375 74.078125 L 150.390625 72.539062 L 147.21875 74.035156 L 147.234375 74.078125 L 150.390625 72.539062 L 147.21875 74.035156 L 152.117188 71.722656 L 146.972656 70.03125 C 146.914062 70.199219 146.589844 71.207031 146.269531 72.8125 C 145.953125 74.421875 145.636719 76.625 145.636719 79.203125 C 145.636719 81.285156 145.84375 83.617188 146.464844 86.054688 C 146.929688 87.886719 147.632812 89.773438 148.660156 91.628906 C 150.195312 94.40625 152.488281 97.082031 155.589844 99.230469 C 158.695312 101.386719 162.5625 103.015625 167.230469 103.992188 C 168.878906 104.339844 170.574219 103.90625 171.855469 102.816406 C 173.136719 101.726562 173.832031 100.121094 173.753906 98.445312 L 172.269531 66.722656 C 172.183594 64.859375 171.160156 63.1875 169.539062 62.269531 C 166.328125 60.445312 163.628906 57.804688 161.746094 54.636719 C 159.863281 51.472656 158.785156 47.800781 158.785156 43.832031 C 158.789062 37.964844 161.152344 32.703125 165 28.847656 C 168.855469 25.003906 174.128906 22.640625 180 22.640625 C 185.875 22.640625 191.148438 25.003906 195.003906 28.847656 C 198.855469 32.703125 201.21875 37.964844 201.222656 43.832031 C 201.21875 47.800781 200.144531 51.472656 198.257812 54.636719 C 196.375 57.804688 193.675781 60.445312 190.464844 62.269531 C 188.84375 63.191406 187.816406 64.859375 187.734375 66.722656 L 186.273438 97.863281 C 186.191406 99.597656 186.960938 101.28125 188.324219 102.359375 C 189.683594 103.4375 191.5 103.796875 193.171875 103.320312 C 196.808594 102.285156 199.898438 100.800781 202.445312 98.960938 C 204.351562 97.585938 205.949219 96.011719 207.226562 94.332031 C 209.152344 91.816406 210.367188 89.101562 211.074219 86.503906 C 211.789062 83.90625 212.019531 81.414062 212.019531 79.207031 C 212.019531 76.632812 211.707031 74.425781 211.386719 72.820312 C 211.066406 71.210938 210.738281 70.203125 210.6875 70.03125 L 205.542969 71.726562 L 210.441406 74.039062 L 207.835938 72.808594 L 210.417969 74.085938 L 210.441406 74.039062 L 207.835938 72.808594 L 210.417969 74.085938 L 210.429688 74.058594 C 210.585938 73.75 212.144531 70.90625 215.402344 68.289062 C 217.035156 66.976562 219.082031 65.699219 221.65625 64.742188 C 224.230469 63.785156 227.34375 63.132812 231.179688 63.132812 C 233.5 63.132812 236.085938 63.375 238.976562 63.953125 C 239.148438 63.972656 239.953125 64.25 241.019531 64.917969 C 242.03125 65.535156 243.292969 66.457031 244.695312 67.636719 C 247.339844 69.851562 250.492188 72.964844 253.914062 76.679688 C 259.914062 83.1875 266.765625 91.550781 273.730469 100.449219 C 284.175781 113.808594 294.894531 128.386719 303.6875 140.015625 C 308.089844 145.835938 312.003906 150.910156 315.222656 154.796875 C 316.839844 156.742188 318.273438 158.386719 319.570312 159.726562 C 320.222656 160.398438 320.839844 160.992188 321.472656 161.535156 C 322.117188 162.082031 322.742188 162.574219 323.660156 163.0625 L 326.167969 158.269531 L 324.121094 153.261719 C 321.160156 154.472656 317.65625 155.121094 314.246094 155.117188 C 310.433594 155.128906 306.761719 154.300781 304.117188 152.914062 C 303.75 152.726562 303.171875 152.371094 302.480469 151.878906 C 301.179688 150.960938 299.488281 149.566406 297.597656 147.855469 C 294.289062 144.859375 290.351562 140.894531 286.308594 136.578125 C 280.234375 130.109375 273.890625 122.839844 268.769531 116.71875 C 266.210938 113.660156 263.949219 110.882812 262.195312 108.648438 C 261.316406 107.53125 260.5625 106.550781 259.960938 105.746094 C 259.367188 104.949219 258.921875 104.308594 258.710938 103.984375 L 258.707031 103.980469 C 257.316406 101.824219 255.460938 100.195312 253.476562 99.136719 C 251.488281 98.074219 249.375 97.554688 247.28125 97.550781 C 246.242188 97.550781 245.203125 97.679688 244.171875 97.976562 C 243.402344 98.199219 242.632812 98.511719 241.886719 98.953125 C 240.773438 99.605469 239.699219 100.570312 238.921875 101.84375 C 238.140625 103.109375 237.714844 104.664062 237.71875 106.160156 C 237.71875 107.257812 237.929688 108.3125 238.269531 109.292969 C 238.613281 110.269531 239.085938 111.183594 239.652344 112.046875 L 239.652344 112.042969 C 239.894531 112.414062 240.144531 112.742188 240.410156 113.097656 C 240.933594 113.765625 241.550781 114.5 242.28125 115.335938 C 243.648438 116.898438 245.414062 118.816406 247.492188 121.011719 C 254.742188 128.679688 265.753906 139.734375 274.988281 148.898438 C 284.214844 158.0625 291.644531 165.324219 291.648438 165.328125 L 295.441406 161.460938 L 295.40625 156.050781 L 295.34375 156.050781 C 295.296875 156.050781 295.226562 156.050781 295.132812 156.054688 C 293.921875 156.054688 288.503906 156.003906 282.804688 155.324219 C 279.960938 154.988281 277.039062 154.492188 274.636719 153.824219 C 273.433594 153.492188 272.359375 153.121094 271.515625 152.742188 C 270.664062 152.367188 270.050781 151.980469 269.742188 151.722656 C 267.667969 150.019531 264.78125 147.390625 261.632812 144.394531 C 256.902344 139.882812 251.535156 134.515625 246.96875 129.851562 C 244.6875 127.523438 242.605469 125.367188 240.898438 123.582031 C 239.191406 121.804688 237.855469 120.386719 237.097656 119.5625 C 236.085938 118.472656 234.976562 117.5625 233.71875 116.890625 C 232.464844 116.21875 231.03125 115.773438 229.46875 115.773438 C 228.503906 115.769531 227.503906 115.949219 226.558594 116.335938 C 225.136719 116.910156 223.898438 117.980469 223.117188 119.253906 C 222.328125 120.527344 221.976562 121.964844 221.980469 123.324219 C 221.980469 124.648438 222.300781 125.910156 222.828125 127.050781 C 223.355469 128.195312 224.097656 129.222656 224.996094 130.136719 C 228.5625 133.757812 258.023438 163.664062 258.023438 163.664062 L 261.882812 159.867188 L 261.882812 154.457031 L 261.882812 155.949219 L 261.886719 154.457031 L 261.882812 154.457031 L 261.882812 155.949219 L 261.886719 154.457031 C 261.820312 154.460938 257.835938 154.429688 253.414062 153.664062 C 251.207031 153.289062 248.898438 152.722656 246.996094 151.972656 C 246.042969 151.605469 245.191406 151.191406 244.507812 150.769531 C 243.824219 150.351562 243.304688 149.925781 242.96875 149.550781 L 242.964844 149.546875 C 241.402344 147.851562 239.03125 145.359375 236.195312 142.28125 C 231.9375 137.679688 226.644531 131.800781 221.667969 125.664062 C 216.691406 119.539062 212.039062 113.125 209.121094 107.707031 C 208.171875 105.941406 206.3125 104.84375 204.308594 104.859375 C 202.300781 104.878906 200.460938 106.007812 199.539062 107.789062 C 199.316406 108.21875 198.964844 108.695312 198.410156 109.214844 C 197.589844 109.988281 196.3125 110.816406 194.730469 111.546875 C 193.148438 112.28125 191.273438 112.921875 189.320312 113.445312 C 187.046875 114.054688 185.421875 116.070312 185.3125 118.417969 L 181.769531 194.109375 C 181.691406 195.730469 182.355469 197.308594 183.566406 198.394531 C 184.777344 199.476562 186.417969 199.960938 188.023438 199.710938 C 194.773438 198.644531 201.597656 198.117188 207.765625 197.542969 C 210.851562 197.253906 213.777344 196.953125 216.488281 196.542969 C 219.199219 196.128906 221.695312 195.621094 224.015625 194.8125 C 228.234375 193.324219 231.769531 191.203125 234.507812 188.691406 C 235.878906 187.433594 237.050781 186.074219 237.996094 184.605469 C 238.9375 183.136719 239.660156 181.554688 240.039062 179.8125 C 240.210938 179.007812 240.195312 178.175781 240 177.378906 C 239.703125 176.171875 239.152344 174.980469 238.378906 173.941406 C 237.609375 172.898438 236.632812 172.027344 235.558594 171.355469 L 235.542969 171.34375 C 234.453125 170.671875 233.410156 170.347656 232.46875 170.15625 C 231.523438 169.964844 230.65625 169.914062 229.835938 169.914062 C 229.128906 169.914062 228.457031 169.953125 227.8125 170.023438 C 226.292969 170.175781 224.914062 170.960938 224.007812 172.1875 C 223.246094 173.222656 222.03125 174.238281 220.453125 174.980469 C 218.878906 175.714844 216.960938 176.175781 214.847656 176.175781 C 211.667969 176.183594 208.886719 175.128906 207.097656 173.707031 C 206.199219 173 205.550781 172.214844 205.148438 171.457031 C 204.742188 170.6875 204.554688 169.960938 204.550781 169.179688 C 204.550781 169.03125 204.5625 168.851562 204.589844 168.632812 C 204.644531 168.1875 204.644531 167.777344 204.589844 167.328125 C 204.5625 167.113281 204.550781 166.933594 204.550781 166.785156 C 204.554688 166.003906 204.742188 165.277344 205.148438 164.507812 C 205.746094 163.375 206.921875 162.167969 208.617188 161.269531 C 210.300781 160.371094 212.464844 159.789062 214.847656 159.792969 C 215.277344 159.789062 215.847656 159.84375 216.617188 159.941406 C 218.03125 160.117188 219.476562 159.722656 220.605469 158.851562 L 220.640625 158.824219 L 217.324219 154.546875 L 216.800781 159.929688 C 216.996094 159.945312 223.066406 160.582031 229.558594 162.410156 C 232.792969 163.3125 236.128906 164.53125 238.800781 165.976562 C 240.132812 166.703125 241.296875 167.476562 242.210938 168.257812 C 243.125 169.039062 243.777344 169.808594 244.195312 170.511719 L 244.195312 170.507812 C 245.113281 172.0625 245.609375 173.960938 245.613281 176.21875 C 245.613281 176.519531 245.605469 176.820312 245.585938 177.128906 C 245.574219 177.351562 245.574219 177.53125 245.585938 177.757812 C 245.601562 178.046875 245.613281 178.335938 245.613281 178.625 C 245.613281 180.472656 245.261719 182.535156 244.535156 184.652344 C 243.453125 187.828125 241.53125 191.105469 238.941406 193.964844 C 236.347656 196.835938 233.105469 199.28125 229.402344 200.929688 C 226.800781 202.09375 223.535156 202.953125 219.839844 203.558594 C 216.148438 204.167969 212.046875 204.53125 207.773438 204.824219 C 205.726562 204.964844 203.933594 206.25 203.144531 208.144531 C 202.359375 210.046875 202.707031 212.214844 204.054688 213.769531 C 204.421875 214.183594 204.644531 214.425781 204.71875 214.527344 L 204.722656 214.53125 C 205.773438 215.832031 206.640625 217.53125 207.230469 219.515625 C 207.824219 221.496094 208.128906 223.753906 208.128906 226.0625 C 208.132812 229.105469 207.59375 232.238281 206.613281 234.957031 C 205.644531 237.679688 204.226562 239.949219 202.691406 241.421875 C 201.429688 242.644531 200.839844 244.386719 201.101562 246.117188 C 201.363281 247.855469 202.441406 249.347656 204.007812 250.136719 C 205.753906 251.023438 207.332031 251.980469 208.671875 252.984375 C 210.015625 253.992188 211.113281 255.042969 211.941406 256.097656 C 213.503906 258.085938 214.804688 260.480469 215.699219 263.046875 C 216.589844 265.609375 217.074219 268.332031 217.070312 270.957031 C 217.070312 271.292969 217.0625 271.625 217.046875 271.949219 L 217.046875 272.417969 C 217.0625 272.738281 217.070312 273.050781 217.070312 273.359375 C 217.066406 276.636719 216.335938 279.726562 214.820312 282.386719 C 214.058594 283.722656 213.101562 284.957031 211.894531 286.09375 C 210.683594 287.226562 209.214844 288.261719 207.417969 289.160156 C 204.984375 290.375 201.945312 291.480469 198.550781 292.535156 C 196.554688 293.160156 195.101562 294.863281 194.800781 296.929688 C 194.503906 298.996094 195.417969 301.042969 197.152344 302.203125 C 201.667969 305.21875 205.457031 308.726562 208.417969 313.191406 C 211.378906 317.660156 213.5625 323.136719 214.605469 330.359375 L 214.617188 330.5 C 214.617188 330.605469 214.605469 330.625 214.585938 330.664062 C 214.570312 330.714844 214.488281 330.820312 214.363281 330.898438 L 214.199219 330.976562 L 214.160156 330.988281 L 214.175781 331.089844 L 214.175781 330.988281 L 214.160156 330.988281 L 214.175781 331.089844 L 214.175781 330.988281 L 214.175781 331.679688 L 214.417969 331.039062 C 214.296875 330.996094 214.207031 330.988281 214.175781 330.988281 L 214.175781 331.679688 L 214.417969 331.039062 L 214.128906 331.800781 L 214.8125 331.316406 C 214.800781 331.28125 214.59375 331.09375 214.417969 331.039062 L 214.128906 331.800781 L 214.8125 331.316406 C 214.796875 331.292969 214.664062 331.0625 214.582031 330.464844 C 213.972656 325.871094 212.726562 321.761719 210.941406 318.136719 C 208.265625 312.691406 204.390625 308.410156 200.007812 305.105469 C 195.617188 301.789062 190.734375 299.390625 185.777344 297.460938 C 184.632812 297.011719 183.355469 296.972656 182.183594 297.339844 C 181.605469 297.523438 181.007812 297.710938 180.402344 297.910156 C 178.273438 298.609375 176.789062 300.5625 176.683594 302.796875 L 174.589844 347.507812 L 180 347.761719 L 185.410156 347.507812 L 183.386719 304.246094 C 183.304688 302.507812 182.410156 300.933594 180.957031 299.980469 C 179.503906 299.023438 177.699219 298.820312 176.070312 299.429688 C 172.667969 300.710938 169.285156 302.191406 166.058594 304.019531 C 161.226562 306.761719 156.695312 310.308594 153.144531 315.082031 C 149.585938 319.839844 147.097656 325.789062 146.167969 332.859375 C 146.109375 333.308594 146.011719 333.558594 145.964844 333.65625 L 145.9375 333.710938 L 146.128906 333.835938 L 145.957031 333.691406 L 145.9375 333.710938 L 146.128906 333.835938 L 145.957031 333.691406 L 146.644531 334.265625 L 146.285156 333.453125 C 146.144531 333.511719 146 333.628906 145.957031 333.691406 L 146.644531 334.265625 L 146.285156 333.453125 L 146.578125 334.117188 L 146.578125 333.378906 C 146.542969 333.378906 146.425781 333.390625 146.285156 333.453125 L 146.578125 334.117188 L 146.578125 333.378906 L 146.578125 333.550781 L 146.59375 333.378906 L 146.578125 333.378906 L 146.578125 333.550781 L 146.59375 333.378906 L 146.558594 333.371094 C 146.472656 333.355469 146.289062 333.238281 146.21875 333.144531 L 146.152344 333.035156 C 146.148438 333.007812 146.136719 332.976562 146.136719 332.894531 L 146.148438 332.753906 L 143.640625 332.394531 L 146.136719 332.824219 L 146.148438 332.753906 L 143.640625 332.394531 L 146.136719 332.824219 L 145.664062 332.742188 L 146.136719 332.828125 L 146.136719 332.824219 L 145.664062 332.742188 L 146.136719 332.828125 C 146.136719 332.820312 146.160156 332.691406 146.195312 332.453125 C 146.292969 331.820312 146.277344 331.21875 146.148438 330.589844 L 146.136719 330.46875 L 146.148438 330.359375 C 147.28125 322.527344 149.746094 316.746094 153.097656 312.074219 C 156.457031 307.414062 160.792969 303.804688 165.933594 300.71875 C 167.785156 299.609375 168.792969 297.535156 168.523438 295.398438 C 168.25 293.257812 166.75 291.5 164.683594 290.890625 C 160.289062 289.597656 156.34375 288.265625 153.332031 286.761719 C 151.535156 285.867188 150.066406 284.832031 148.859375 283.699219 C 147.046875 281.992188 145.785156 280.0625 144.9375 277.917969 C 144.089844 275.777344 143.675781 273.414062 143.675781 270.960938 C 143.675781 268.335938 144.15625 265.609375 145.054688 263.050781 C 145.945312 260.484375 147.25 258.089844 148.8125 256.097656 C 150.246094 254.253906 152.550781 252.433594 155.457031 250.824219 C 156.859375 250.042969 157.832031 248.703125 158.140625 247.128906 C 158.445312 245.554688 158.046875 243.945312 157.039062 242.699219 C 155.738281 241.09375 154.597656 238.902344 153.824219 236.414062 C 153.042969 233.929688 152.625 231.160156 152.625 228.464844 C 152.625 228.136719 152.632812 227.804688 152.644531 227.472656 L 152.644531 227.0625 C 152.632812 226.730469 152.625 226.398438 152.625 226.066406 C 152.625 223.753906 152.929688 221.496094 153.523438 219.515625 C 154.113281 217.527344 154.976562 215.832031 156.03125 214.53125 C 156.773438 213.613281 157.597656 212.734375 158.503906 211.855469 C 160.042969 210.371094 160.5625 208.109375 159.824219 206.097656 C 159.085938 204.09375 157.222656 202.703125 155.089844 202.566406 C 150.410156 202.265625 145.890625 201.925781 141.828125 201.304688 C 137.761719 200.691406 134.167969 199.792969 131.355469 198.535156 C 126.417969 196.335938 122.285156 192.703125 119.445312 188.585938 C 118.023438 186.53125 116.929688 184.367188 116.207031 182.25 C 115.480469 180.136719 115.128906 178.074219 115.128906 176.226562 C 115.132812 173.972656 115.632812 172.070312 116.554688 170.507812 L 116.554688 170.511719 C 116.980469 169.796875 117.644531 169.015625 118.585938 168.222656 C 120.21875 166.832031 122.660156 165.472656 125.398438 164.367188 C 129.503906 162.691406 134.230469 161.539062 137.871094 160.855469 C 139.691406 160.511719 141.238281 160.273438 142.316406 160.128906 C 142.859375 160.054688 143.28125 160.003906 143.5625 159.976562 C 143.699219 159.957031 143.804688 159.945312 143.871094 159.941406 L 143.9375 159.933594 L 143.953125 159.929688 L 143.789062 158.324219 L 143.949219 159.929688 L 143.953125 159.929688 L 143.789062 158.324219 L 143.949219 159.929688 L 143.425781 154.546875 L 140.210938 158.898438 L 140.246094 158.925781 C 141.359375 159.746094 142.761719 160.113281 144.132812 159.941406 C 144.90625 159.84375 145.480469 159.789062 145.90625 159.792969 C 149.085938 159.78125 151.867188 160.835938 153.652344 162.257812 C 154.554688 162.964844 155.203125 163.75 155.605469 164.507812 C 156.011719 165.277344 156.195312 166.003906 156.199219 166.785156 C 156.195312 167.566406 156.011719 168.296875 155.605469 169.058594 C 155 170.199219 153.832031 171.402344 152.132812 172.300781 C 150.453125 173.203125 148.289062 173.785156 145.90625 173.785156 C 143.792969 173.785156 141.871094 173.328125 140.300781 172.585938 C 138.722656 171.851562 137.511719 170.835938 136.746094 169.796875 C 135.839844 168.570312 134.472656 167.792969 132.953125 167.628906 C 132.296875 167.5625 131.613281 167.515625 130.898438 167.515625 C 130.078125 167.519531 129.210938 167.574219 128.265625 167.765625 C 127.324219 167.957031 126.273438 168.285156 125.1875 168.964844 L 125.199219 168.957031 C 123.769531 169.847656 122.503906 171.113281 121.671875 172.628906 C 120.832031 174.140625 120.449219 175.839844 120.453125 177.429688 C 120.460938 179.503906 121.035156 181.402344 121.898438 183.117188 C 123.210938 185.6875 125.1875 187.9375 127.6875 189.917969 C 130.1875 191.890625 133.230469 193.578125 136.742188 194.8125 C 139.015625 195.609375 141.464844 196.109375 144.121094 196.519531 C 148.101562 197.125 152.554688 197.503906 157.289062 197.933594 C 162.023438 198.359375 167.03125 198.835938 172.003906 199.59375 C 173.605469 199.835938 175.230469 199.351562 176.441406 198.261719 C 177.648438 197.175781 178.300781 195.613281 178.226562 193.992188 L 174.71875 119 C 174.601562 116.566406 172.863281 114.5 170.480469 113.96875 C 167.472656 113.308594 164.480469 112.359375 162.226562 111.207031 C 161.097656 110.636719 160.164062 110.015625 159.480469 109.425781 C 158.792969 108.828125 158.367188 108.277344 158.113281 107.789062 C 157.199219 106.007812 155.355469 104.878906 153.351562 104.859375 C 151.347656 104.84375 149.484375 105.941406 148.535156 107.707031 C 146.59375 111.308594 143.875 115.378906 140.808594 119.488281 C 136.203125 125.664062 130.8125 131.949219 126.019531 137.289062 C 123.621094 139.960938 121.367188 142.394531 119.429688 144.472656 C 117.488281 146.554688 115.867188 148.273438 114.695312 149.550781 C 114.347656 149.925781 113.820312 150.359375 113.117188 150.789062 C 111.890625 151.542969 110.144531 152.246094 108.234375 152.777344 C 105.371094 153.585938 102.167969 154.027344 99.746094 154.242188 C 98.53125 154.347656 97.511719 154.40625 96.804688 154.429688 C 96.453125 154.445312 96.179688 154.449219 96.003906 154.453125 C 95.917969 154.453125 95.847656 154.457031 95.8125 154.457031 L 95.773438 154.457031 L 95.773438 154.8125 L 95.773438 154.457031 L 95.773438 154.8125 L 95.773438 154.457031 L 95.773438 159.867188 L 99.636719 163.664062 C 99.636719 163.664062 107 156.1875 114.8125 148.257812 C 122.625 140.328125 130.878906 131.945312 132.660156 130.136719 L 132.667969 130.132812 C 133.5625 129.21875 134.304688 128.1875 134.832031 127.046875 C 135.363281 125.902344 135.675781 124.640625 135.675781 123.320312 C 135.675781 122.414062 135.523438 121.476562 135.1875 120.570312 C 134.6875 119.214844 133.730469 117.933594 132.449219 117.0625 C 131.171875 116.1875 129.628906 115.761719 128.191406 115.769531 C 126.628906 115.773438 125.191406 116.21875 123.9375 116.886719 C 122.679688 117.5625 121.574219 118.46875 120.5625 119.5625 L 120.558594 119.566406 C 119.546875 120.664062 117.515625 122.808594 114.929688 125.484375 C 111.054688 129.503906 105.910156 134.742188 100.914062 139.65625 C 98.417969 142.105469 95.957031 144.476562 93.71875 146.5625 C 91.488281 148.644531 89.464844 150.445312 87.914062 151.722656 C 87.605469 151.980469 86.992188 152.367188 86.144531 152.738281 C 84.660156 153.40625 82.5 154.03125 80.140625 154.5 C 76.582031 155.214844 72.554688 155.617188 69.25 155.820312 C 65.9375 156.03125 63.332031 156.050781 62.527344 156.050781 C 62.433594 156.050781 62.363281 156.050781 62.316406 156.050781 L 62.261719 156.050781 L 62.214844 161.460938 L 66 165.328125 C 66.011719 165.320312 77.773438 153.828125 90.082031 141.507812 C 96.242188 135.347656 102.53125 128.980469 107.582031 123.722656 C 110.109375 121.089844 112.324219 118.734375 114.078125 116.796875 C 114.957031 115.828125 115.71875 114.960938 116.359375 114.1875 C 116.683594 113.804688 116.972656 113.445312 117.242188 113.097656 C 117.515625 112.746094 117.757812 112.417969 118.003906 112.046875 L 118.003906 112.042969 C 118.574219 111.179688 119.046875 110.269531 119.386719 109.289062 C 119.726562 108.3125 119.933594 107.253906 119.933594 106.160156 C 119.9375 104.835938 119.609375 103.453125 118.980469 102.277344 C 118.511719 101.390625 117.894531 100.625 117.207031 100.007812 C 116.175781 99.078125 115.019531 98.472656 113.871094 98.09375 C 112.710938 97.714844 111.542969 97.550781 110.375 97.550781 C 108.28125 97.554688 106.167969 98.074219 104.175781 99.136719 C 102.191406 100.195312 100.339844 101.824219 98.945312 103.980469 L 98.945312 103.984375 C 98.773438 104.25 98.445312 104.722656 98.011719 105.316406 C 97.191406 106.433594 95.992188 107.988281 94.535156 109.820312 C 89.40625 116.257812 81 126.175781 72.855469 134.960938 C 68.789062 139.355469 64.773438 143.46875 61.316406 146.699219 C 59.585938 148.3125 57.992188 149.703125 56.640625 150.777344 C 55.296875 151.851562 54.152344 152.605469 53.542969 152.914062 L 53.546875 152.910156 L 56.035156 157.714844 " fill-opacity="1" fill-rule="nonzero"/></g><path fill="#85d2ff" d="M 111.898438 167.75 C 118.292969 156.976562 143.425781 154.546875 143.425781 154.546875 L 143.464844 154.570312 C 144.261719 154.472656 145.070312 154.378906 145.90625 154.378906 C 154.578125 154.378906 161.617188 159.933594 161.617188 166.785156 C 161.617188 173.636719 154.578125 179.195312 145.90625 179.195312 C 140.117188 179.195312 135.117188 176.695312 132.390625 173.011719 C 130.730469 172.839844 129.101562 172.898438 128.082031 173.539062 C 122.683594 176.929688 127.546875 185.851562 138.535156 189.707031 C 152.59375 194.648438 191.558594 189.582031 208.941406 211.136719 C 216.242188 220.1875 214.476562 237.664062 206.382812 245.390625 C 191.40625 259.679688 165.410156 252.898438 157.292969 259.769531 C 146.726562 268.726562 152.722656 277.003906 159.578125 280 C 184.34375 290.804688 214.972656 294.863281 219.96875 329.589844 C 220.964844 336.527344 210.375 339.902344 209.214844 331.175781 C 205.0625 300.027344 169.097656 300.648438 150.917969 291.605469 C 134.714844 283.542969 135.777344 263.933594 144.550781 252.757812 C 153.316406 241.585938 176.945312 238.238281 185.808594 236.394531 C 196.398438 234.203125 202.390625 225.75 191.40625 216.371094 C 177.664062 204.632812 146.402344 211.164062 129.148438 203.476562 C 113.695312 196.589844 105.507812 178.53125 111.898438 167.75 " fill-opacity="1" fill-rule="nonzero"/><path fill="#85d2ff" d="M 206.636719 43.832031 C 206.636719 58.527344 194.707031 70.441406 180 70.441406 C 165.296875 70.441406 153.367188 58.527344 153.367188 43.832031 C 153.367188 29.140625 165.296875 17.230469 180 17.230469 C 194.707031 17.230469 206.636719 29.140625 206.636719 43.832031 " fill-opacity="1" fill-rule="nonzero"/><path fill="#85d2ff" d="M 180 347.761719 L 166.152344 51.816406 L 193.851562 51.816406 Z M 180 347.761719 " fill-opacity="1" fill-rule="nonzero"/><path fill="#85d2ff" d="M 152.117188 71.722656 C 152.117188 71.722656 143.488281 53.464844 117.613281 58.644531 C 99.769531 62.21875 40.546875 153.535156 31.492188 158.269531 C 39.308594 161.460938 49.191406 161.261719 56.035156 157.714844 C 66.925781 152.078125 99.238281 113.507812 103.496094 106.917969 C 107.761719 100.324219 117.746094 102.613281 113.480469 109.066406 C 109.21875 115.519531 62.214844 161.460938 62.214844 161.460938 C 62.214844 161.460938 84.320312 161.675781 91.351562 155.902344 C 100.417969 148.457031 120.28125 127.851562 124.539062 123.234375 C 128.804688 118.625 132.367188 122.71875 128.804688 126.34375 C 125.238281 129.960938 95.773438 159.867188 95.773438 159.867188 C 95.773438 159.867188 112.558594 159.867188 118.679688 153.214844 C 124.734375 146.636719 144.78125 126.074219 153.304688 110.269531 C 158.632812 120.570312 183.796875 121.035156 183.796875 121.035156 C 183.796875 121.035156 204.445312 101.832031 174.078125 99.496094 C 143.71875 97.164062 152.117188 71.722656 152.117188 71.722656 " fill-opacity="1" fill-rule="nonzero"/><path fill="#85d2ff" d="M 205.542969 71.726562 C 205.542969 71.726562 214.171875 53.464844 240.039062 58.648438 C 257.886719 62.21875 317.109375 153.539062 326.167969 158.269531 C 318.34375 161.460938 308.464844 161.265625 301.621094 157.714844 C 290.734375 152.078125 258.417969 113.507812 254.15625 106.917969 C 249.898438 100.328125 239.914062 102.613281 244.171875 109.066406 C 248.433594 115.519531 295.441406 161.460938 295.441406 161.460938 C 295.441406 161.460938 273.332031 161.675781 266.300781 155.90625 C 257.242188 148.457031 237.378906 127.851562 233.113281 123.234375 C 228.859375 118.628906 225.292969 122.722656 228.859375 126.34375 C 232.421875 129.960938 261.882812 159.867188 261.882812 159.867188 C 261.882812 159.867188 245.101562 159.867188 238.980469 153.214844 C 232.925781 146.640625 212.875 126.074219 204.351562 110.269531 C 199.023438 120.574219 173.859375 121.035156 173.859375 121.035156 C 173.859375 121.035156 153.21875 101.832031 183.574219 99.496094 C 213.941406 97.164062 205.542969 71.726562 205.542969 71.726562 " fill-opacity="1" fill-rule="nonzero"/><path fill="#ffffff" d="M 248.851562 167.75 C 242.460938 156.976562 217.324219 154.546875 217.324219 154.546875 L 217.289062 154.570312 C 216.488281 154.472656 215.683594 154.378906 214.847656 154.378906 C 206.171875 154.378906 199.132812 159.933594 199.132812 166.785156 C 199.132812 173.636719 206.171875 179.195312 214.847656 179.195312 C 220.636719 179.195312 225.640625 176.695312 228.363281 173.011719 C 230.027344 172.839844 231.65625 172.898438 232.675781 173.539062 C 238.066406 176.929688 233.203125 185.851562 222.21875 189.707031 C 208.160156 194.648438 169.195312 189.582031 151.8125 211.136719 C 144.511719 220.1875 146.273438 237.664062 154.367188 245.390625 C 169.347656 259.679688 195.339844 252.898438 203.457031 259.769531 C 214.027344 268.726562 208.03125 277.003906 201.171875 280 C 176.410156 290.804688 145.777344 294.863281 140.78125 329.589844 C 139.789062 336.527344 150.371094 339.902344 151.535156 331.175781 C 155.6875 300.027344 191.65625 300.648438 209.832031 291.605469 C 226.042969 283.542969 224.972656 263.933594 216.207031 252.757812 C 207.4375 241.585938 183.808594 238.238281 174.945312 236.394531 C 164.355469 234.203125 158.367188 225.75 169.347656 216.371094 C 183.089844 204.632812 214.355469 211.164062 231.609375 203.476562 C 247.054688 196.589844 255.242188 178.53125 248.851562 167.75 " fill-opacity="1" fill-rule="nonzero"/><path fill="#85d2ff" d="M 248.851562 170.144531 C 242.460938 159.371094 217.324219 156.941406 217.324219 156.941406 L 217.289062 156.964844 C 216.488281 156.867188 215.683594 156.773438 214.847656 156.773438 C 206.171875 156.773438 199.132812 162.328125 199.132812 169.179688 C 199.132812 176.03125 206.171875 181.585938 214.847656 181.585938 C 220.636719 181.585938 225.640625 179.085938 228.363281 175.40625 C 230.027344 175.234375 231.65625 175.296875 232.675781 175.929688 C 238.066406 179.324219 233.203125 188.242188 222.21875 192.101562 C 208.160156 197.042969 169.195312 191.976562 151.8125 213.527344 C 144.511719 222.582031 146.273438 240.058594 154.367188 247.78125 C 169.347656 262.074219 195.339844 255.289062 203.457031 262.164062 C 214.027344 271.121094 208.03125 279.398438 201.171875 282.390625 C 176.410156 293.195312 145.777344 297.261719 140.78125 331.984375 C 139.789062 338.917969 150.371094 342.292969 151.535156 333.574219 C 155.6875 302.417969 191.65625 303.042969 209.832031 294 C 226.042969 285.929688 224.972656 266.328125 216.207031 255.15625 C 207.4375 243.976562 183.808594 240.628906 174.945312 238.796875 C 164.355469 236.597656 158.367188 228.144531 169.347656 218.765625 C 183.089844 207.03125 214.355469 213.5625 231.609375 205.875 C 247.054688 198.992188 255.242188 180.921875 248.851562 170.144531 " fill-opacity="1" fill-rule="nonzero"/></svg>